<svg width="273" height="367" viewBox="0 0 273 367" fill="none" xmlns="http://www.w3.org/2000/svg">
<path d="M144.535 1L144.919 0.679908L144.769 0.5H144.535V1ZM49.5811 1V0.5H49.374L49.2276 0.646447L49.5811 1ZM177.659 40.7482V41.2482H178.726L178.043 40.4281L177.659 40.7482ZM67.247 40.7482V40.2482L67.0418 41.2042L67.247 40.7482ZM177.659 90.4334L177.453 90.8894L177.768 91.031L178.012 90.787L177.659 90.4334ZM218.511 49.5811L218.864 49.9347L219.011 49.7882V49.5811H218.511ZM218.511 1V0.5H218.011V1H218.511ZM284.758 1L285.174 0.72265L285.025 0.5H284.758V1ZM339.964 83.8087L339.548 84.0861L339.977 84.7296L340.387 84.0742L339.964 83.8087ZM391.857 1V0.5H391.58L391.433 0.734493L391.857 1ZM457 1H457.5V0.5H457V1ZM457 173.242L457.354 173.596L457.5 173.449V173.242H457ZM419.46 210.782V211.282H419.667L419.814 211.136L419.46 210.782ZM262.676 210.782V210.282H262.176V210.782H262.676ZM262.676 248.322H262.176V248.822H262.676V248.322ZM419.46 248.322L419.885 248.059L419.739 247.822H419.46V248.322ZM457 309.048L457.418 309.322L457.592 309.056L457.425 308.786L457 309.048ZM419.46 366.463V366.963H419.731L419.879 366.736L419.46 366.463ZM37.4358 366.463H36.9358V366.963H37.4358V366.463ZM37.4358 155.576H37.9358V155.365L37.7839 155.217L37.4358 155.576ZM1 120.245L0.626295 119.912L0.308217 120.27L0.651927 120.604L1 120.245ZM45.1646 70.5593L45.5384 70.8915L45.981 70.3936L45.3792 70.1077L45.1646 70.5593ZM1 49.5811L0.646447 49.2276L0.145324 49.7287L0.785472 50.0328L1 49.5811ZM86.0155 90.4316L86.2596 89.9953L85.9294 89.8106L85.6619 90.0781L86.0155 90.4316ZM62.829 113.618L62.4755 113.265L62.1856 113.554L62.413 113.895L62.829 113.618ZM151.158 126.867V127.367H153.077L151.402 126.431L151.158 126.867ZM71.662 126.867L71.2459 127.145L71.3944 127.367H71.662V126.867ZM185.387 158.891L185.02 158.552L184.245 159.391H185.387V158.891ZM198.637 144.538L198.93 144.133L198.57 143.873L198.269 144.199L198.637 144.538ZM218.511 158.891V159.391H220.057L218.804 158.486L218.511 158.891ZM262.675 40.7508L263.087 40.4675L262.175 39.1409V40.7508H262.675ZM262.675 165.516H262.175V166.016H262.675V165.516ZM323.401 129.08L322.989 129.363L323.138 129.58H323.401V129.08ZM353.212 129.08V129.58H353.481L353.629 129.356L353.212 129.08ZM411.731 40.7508H412.231V39.0908L411.314 40.4746L411.731 40.7508ZM411.731 165.516V166.016H412.231V165.516H411.731ZM91.5375 210.782V210.282H91.0375V210.782H91.5375ZM212.99 210.782H213.49V210.282H212.99V210.782ZM91.5375 248.322H91.0375V248.822H91.5375V248.322ZM212.99 248.322V248.822H213.49V248.322H212.99ZM212.99 284.76H213.49V284.26H212.99V284.76ZM91.5375 284.76V284.26H91.0375V284.76H91.5375ZM212.99 322.3V322.8H213.49V322.3H212.99ZM91.5375 322.3H91.0375V322.8H91.5375V322.3ZM263.78 284.76V284.26H263.28V284.76H263.78ZM385.233 284.76L385.597 284.417L385.449 284.26H385.233V284.76ZM263.78 322.3H263.28V322.8H263.78V322.3ZM385.233 322.3V322.8H385.449L385.597 322.642L385.233 322.3ZM402.899 303.53L403.263 303.872L403.585 303.53L403.263 303.187L402.899 303.53ZM144.535 0.5H49.5811V1.5H144.535V0.5ZM178.043 40.4281L144.919 0.679908L144.151 1.32009L177.274 41.0683L178.043 40.4281ZM67.247 41.2482H177.659V40.2482H67.247V41.2482ZM177.864 89.9775L67.4522 40.2922L67.0418 41.2042L177.453 90.8894L177.864 89.9775ZM218.157 49.2276L177.305 90.0799L178.012 90.787L218.864 49.9347L218.157 49.2276ZM218.011 1V49.5811H219.011V1H218.011ZM284.758 0.5H218.511V1.5H284.758V0.5ZM340.38 83.5314L285.174 0.72265L284.342 1.27735L339.548 84.0861L340.38 83.5314ZM391.433 0.734493L339.54 83.5432L340.387 84.0742L392.281 1.26551L391.433 0.734493ZM457 0.5H391.857V1.5H457V0.5ZM457.5 173.242V1H456.5V173.242H457.5ZM419.814 211.136L457.354 173.596L456.646 172.889L419.107 210.429L419.814 211.136ZM262.676 211.282H419.46V210.282H262.676V211.282ZM263.176 248.322V210.782H262.176V248.322H263.176ZM419.46 247.822H262.676V248.822H419.46V247.822ZM457.425 308.786L419.885 248.059L419.035 248.585L456.575 309.311L457.425 308.786ZM419.879 366.736L457.418 309.322L456.582 308.775L419.042 366.189L419.879 366.736ZM37.4358 366.963H419.46V365.963H37.4358V366.963ZM36.9358 155.576V366.463H37.9358V155.576H36.9358ZM0.651927 120.604L37.0878 155.935L37.7839 155.217L1.34807 119.886L0.651927 120.604ZM44.7909 70.2271L0.626295 119.912L1.3737 120.577L45.5384 70.8915L44.7909 70.2271ZM0.785472 50.0328L44.9501 71.011L45.3792 70.1077L1.21453 49.1295L0.785472 50.0328ZM49.2276 0.646447L0.646447 49.2276L1.35355 49.9347L49.9347 1.35355L49.2276 0.646447ZM85.6619 90.0781L62.4755 113.265L63.1826 113.972L86.369 90.7852L85.6619 90.0781ZM151.402 126.431L86.2596 89.9953L85.7714 90.868L150.914 127.304L151.402 126.431ZM71.662 127.367H151.158V126.367H71.662V127.367ZM62.413 113.895L71.2459 127.145L72.078 126.59L63.2451 113.341L62.413 113.895ZM185.755 159.231L199.004 144.877L198.269 144.199L185.02 158.552L185.755 159.231ZM218.511 158.391H185.387V159.391H218.511V158.391ZM198.344 144.943L218.218 159.297L218.804 158.486L198.93 144.133L198.344 144.943ZM262.175 40.7508V165.516H263.175V40.7508H262.175ZM323.813 128.797L263.087 40.4675L262.263 41.0341L322.989 129.363L323.813 128.797ZM353.212 128.58H323.401V129.58H353.212V128.58ZM411.314 40.4746L352.796 128.804L353.629 129.356L412.147 41.0269L411.314 40.4746ZM412.231 165.516V40.7508H411.231V165.516H412.231ZM262.675 166.016H411.731V165.016H262.675V166.016ZM91.5375 211.282H212.99V210.282H91.5375V211.282ZM92.0375 248.322V210.782H91.0375V248.322H92.0375ZM212.99 247.822H91.5375V248.822H212.99V247.822ZM212.49 210.782V248.322H213.49V210.782H212.49ZM212.99 284.26H91.5375V285.26H212.99V284.26ZM213.49 322.3V284.76H212.49V322.3H213.49ZM91.5375 322.8H212.99V321.8H91.5375V322.8ZM91.0375 284.76V322.3H92.0375V284.76H91.0375ZM263.78 285.26H385.233V284.26H263.78V285.26ZM264.28 322.3V284.76H263.28V322.3H264.28ZM385.233 321.8H263.78V322.8H385.233V321.8ZM402.534 303.187L384.869 321.957L385.597 322.642L403.263 303.872L402.534 303.187ZM384.869 285.102L402.534 303.872L403.263 303.187L385.597 284.417L384.869 285.102Z" fill="#E6E6E6"/>
</svg>
