<svg width="345" height="488" viewBox="0 0 345 488" fill="none" xmlns="http://www.w3.org/2000/svg">
<path d="M-71.9346 1L-71.5505 0.679908L-71.7004 0.5H-71.9346V1ZM-198.332 1V0.5H-198.539L-198.685 0.646447L-198.332 1ZM-27.8426 53.9104V54.4104H-26.7751L-27.4585 53.5903L-27.8426 53.9104ZM-174.816 53.9104V53.4104L-175.021 54.3664L-174.816 53.9104ZM-27.8426 120.048L-28.0478 120.504L-27.7331 120.646L-27.4891 120.402L-27.8426 120.048ZM26.5375 65.6683L26.8911 66.0218L27.0375 65.8754V65.6683H26.5375ZM26.5375 1V0.5H26.0375V1H26.5375ZM114.722 1L115.138 0.72265L114.989 0.5H114.722V1ZM188.208 111.23L187.792 111.507L188.221 112.151L188.632 111.496L188.208 111.23ZM257.286 1V0.5H257.009L256.862 0.734493L257.286 1ZM344 1H344.5V0.5H344V1ZM344 230.278L344.354 230.632L344.5 230.486V230.278H344ZM294.029 280.249V280.749H294.236L294.383 280.603L294.029 280.249ZM85.3269 280.249V279.749H84.8269V280.249H85.3269ZM85.3269 330.22H84.8269V330.72H85.3269V330.22ZM294.029 330.22L294.454 329.957L294.308 329.72H294.029V330.22ZM344 411.056L344.418 411.329L344.592 411.063L344.425 410.793L344 411.056ZM294.029 487.482V487.982H294.299L294.448 487.756L294.029 487.482ZM-214.499 487.482H-214.999V487.982H-214.499V487.482ZM-214.499 206.763H-213.999V206.551L-214.151 206.404L-214.499 206.763ZM-263 159.731L-263.374 159.399L-263.692 159.757L-263.348 160.09L-263 159.731ZM-204.211 93.5932L-203.837 93.9254L-203.394 93.4275L-203.996 93.1416L-204.211 93.5932ZM-263 65.6683L-263.354 65.3147L-263.855 65.8159L-263.215 66.1199L-263 65.6683ZM-149.832 120.046L-149.588 119.61L-149.918 119.425L-150.186 119.692L-149.832 120.046ZM-180.697 150.91L-181.05 150.557L-181.34 150.847L-181.113 151.188L-180.697 150.91ZM-63.1181 168.547V169.047H-61.1999L-62.8741 168.111L-63.1181 168.547ZM-168.939 168.547L-169.355 168.824L-169.207 169.047H-168.939V168.547ZM-17.5544 211.176L-17.9218 210.837L-18.6964 211.676H-17.5544V211.176ZM0.0823669 192.069L0.375122 191.664L0.015686 191.405L-0.285034 191.73L0.0823669 192.069ZM26.5376 211.176V211.676H28.0839L26.8303 210.771L26.5376 211.176ZM85.3259 53.9141L85.7379 53.6308L84.8259 52.3042V53.9141H85.3259ZM85.3259 219.994H84.8259V220.494H85.3259V219.994ZM166.161 171.493L165.749 171.776L165.898 171.993H166.161V171.493ZM205.844 171.493V171.993H206.113L206.261 171.769L205.844 171.493ZM283.74 53.9141H284.24V52.254L283.323 53.6379L283.74 53.9141ZM283.74 219.994V220.494H284.24V219.994H283.74ZM-142.482 280.25V279.75H-142.982V280.25H-142.482ZM19.1888 280.25H19.6888V279.75H19.1888V280.25ZM-142.482 330.221H-142.982V330.721H-142.482V330.221ZM19.1888 330.221V330.721H19.6888V330.221H19.1888ZM19.1888 378.725H19.6888V378.225H19.1888V378.725ZM-142.482 378.725V378.225H-142.982V378.725H-142.482ZM19.1888 428.696V429.196H19.6888V428.696H19.1888ZM-142.482 428.696H-142.982V429.196H-142.482V428.696ZM86.7969 378.725V378.225H86.2969V378.725H86.7969ZM248.468 378.725L248.832 378.382L248.684 378.225H248.468V378.725ZM86.7969 428.696H86.2969V429.196H86.7969V428.696ZM248.468 428.696V429.196H248.684L248.832 429.038L248.468 428.696ZM271.983 403.71L272.347 404.053L272.67 403.71L272.347 403.367L271.983 403.71ZM-71.9346 0.5H-198.332V1.5H-71.9346V0.5ZM-27.4585 53.5903L-71.5505 0.679908L-72.3187 1.32009L-28.2267 54.2305L-27.4585 53.5903ZM-174.816 54.4104H-27.8426V53.4104H-174.816V54.4104ZM-27.6374 119.592L-174.611 53.4545L-175.021 54.3664L-28.0478 120.504L-27.6374 119.592ZM26.184 65.3147L-28.1962 119.695L-27.4891 120.402L26.8911 66.0218L26.184 65.3147ZM26.0375 1V65.6683H27.0375V1H26.0375ZM114.722 0.5H26.5375V1.5H114.722V0.5ZM188.624 110.953L115.138 0.72265L114.306 1.27735L187.792 111.507L188.624 110.953ZM256.862 0.734493L187.785 110.965L188.632 111.496L257.709 1.26551L256.862 0.734493ZM344 0.5H257.286V1.5H344V0.5ZM344.5 230.278V1H343.5V230.278H344.5ZM294.383 280.603L344.354 230.632L343.646 229.925L293.675 279.896L294.383 280.603ZM85.3269 280.749H294.029V279.749H85.3269V280.749ZM85.8269 330.22V280.249H84.8269V330.22H85.8269ZM294.029 329.72H85.3269V330.72H294.029V329.72ZM344.425 410.793L294.454 329.957L293.604 330.483L343.575 411.319L344.425 410.793ZM294.448 487.756L344.418 411.329L343.582 410.782L293.611 487.208L294.448 487.756ZM-214.499 487.982H294.029V486.982H-214.499V487.982ZM-214.999 206.763V487.482H-213.999V206.763H-214.999ZM-263.348 160.09L-214.847 207.122L-214.151 206.404L-262.652 159.372L-263.348 160.09ZM-204.584 93.261L-263.374 159.399L-262.626 160.063L-203.837 93.9254L-204.584 93.261ZM-263.215 66.1199L-204.425 94.0449L-203.996 93.1416L-262.785 65.2167L-263.215 66.1199ZM-198.685 0.646447L-263.354 65.3147L-262.646 66.0218L-197.978 1.35355L-198.685 0.646447ZM-150.186 119.692L-181.05 150.557L-180.343 151.264L-149.479 120.399L-150.186 119.692ZM-62.8741 168.111L-149.588 119.61L-150.077 120.482L-63.3622 168.984L-62.8741 168.111ZM-168.939 169.047H-63.1181V168.047H-168.939V169.047ZM-181.113 151.188L-169.355 168.824L-168.523 168.27L-180.281 150.633L-181.113 151.188ZM-17.187 211.515L0.449768 192.409L-0.285034 191.73L-17.9218 210.837L-17.187 211.515ZM26.5376 210.676H-17.5544V211.676H26.5376V210.676ZM-0.210388 192.475L26.2448 211.581L26.8303 210.771L0.375122 191.664L-0.210388 192.475ZM84.8259 53.9141V219.994H85.8259V53.9141H84.8259ZM166.573 171.21L85.7379 53.6308L84.9139 54.1973L165.749 171.776L166.573 171.21ZM205.844 170.993H166.161V171.993H205.844V170.993ZM283.323 53.6379L205.427 171.217L206.261 171.769L284.157 54.1902L283.323 53.6379ZM284.24 219.994V53.9141H283.24V219.994H284.24ZM85.3259 220.494H283.74V219.494H85.3259V220.494ZM-142.482 280.75H19.1888V279.75H-142.482V280.75ZM-141.982 330.221V280.25H-142.982V330.221H-141.982ZM19.1888 329.721H-142.482V330.721H19.1888V329.721ZM18.6888 280.25V330.221H19.6888V280.25H18.6888ZM19.1888 378.225H-142.482V379.225H19.1888V378.225ZM19.6888 428.696V378.725H18.6888V428.696H19.6888ZM-142.482 429.196H19.1888V428.196H-142.482V429.196ZM-142.982 378.725V428.696H-141.982V378.725H-142.982ZM86.7969 379.225H248.468V378.225H86.7969V379.225ZM87.2969 428.696V378.725H86.2969V428.696H87.2969ZM248.468 428.196H86.7969V429.196H248.468V428.196ZM271.619 403.367L248.104 428.353L248.832 429.038L272.347 404.053L271.619 403.367ZM248.104 379.067L271.619 404.053L272.347 403.367L248.832 378.382L248.104 379.067Z" fill="#E6E6E6"/>
</svg>
