<svg width="47" height="48" viewBox="0 0 47 48" fill="none" xmlns="http://www.w3.org/2000/svg">
<path d="M13.5 44H3.5C2.83696 44 2.20107 43.7366 1.73223 43.2678C1.26339 42.7989 1 42.163 1 41.5V4C1 3.33696 1.26339 2.70107 1.73223 2.23223C2.20107 1.76339 2.83696 1.5 3.5 1.5H24.975C25.6309 1.50276 26.2593 1.76314 26.725 2.225L35.275 10.775C35.7369 11.2407 35.9972 11.8691 36 12.525V14" stroke="black" stroke-width="2" stroke-linecap="round" stroke-linejoin="round"/>
<path d="M46 46.5L36 38M28.5 41.5C30.4778 41.5 32.4112 40.9135 34.0557 39.8147C35.7002 38.7159 36.9819 37.1541 37.7388 35.3268C38.4957 33.4996 38.6937 31.4889 38.3079 29.5491C37.922 27.6093 36.9696 25.8275 35.5711 24.4289C34.1725 23.0304 32.3907 22.078 30.4509 21.6922C28.5111 21.3063 26.5004 21.5043 24.6732 22.2612C22.8459 23.0181 21.2841 24.2998 20.1853 25.9443C19.0865 27.5888 18.5 29.5222 18.5 31.5C18.5 34.1522 19.5536 36.6957 21.4289 38.5711C23.3043 40.4464 25.8478 41.5 28.5 41.5Z" stroke="black" stroke-width="2" stroke-linecap="round" stroke-linejoin="round"/>
</svg>
