<svg width="46" height="46" viewBox="0 0 46 46" fill="none" xmlns="http://www.w3.org/2000/svg">
<path d="M7.82006 26.833L1 36.5864L8.40674 38.7864L13.0023 44.9954L19.8957 35.1686" stroke="black" stroke-width="2" stroke-linecap="round" stroke-linejoin="round"/>
<path d="M38.1804 26.833L45.0005 36.5864L37.5937 38.7864L32.9981 44.9954L26.1047 35.1686" stroke="black" stroke-width="2" stroke-linecap="round" stroke-linejoin="round"/>
<path d="M40.796 18.1067C40.796 19.9645 39.1582 21.529 38.6204 23.1912C38.0827 24.8535 38.4493 27.1268 37.3982 28.5691C36.3471 30.0113 34.0982 30.3291 32.7782 31.4046C31.4582 32.4802 30.3337 34.4847 28.6226 35.0469C26.9115 35.6091 24.9803 34.5336 23.1225 34.5336C21.2647 34.5336 19.2847 35.5847 17.6225 35.0469C15.9602 34.5091 14.9091 32.4313 13.4669 31.4046C12.0247 30.378 9.77574 30.0113 8.72462 28.5691C7.6735 27.1268 8.06462 24.9024 7.50239 23.1912C6.94016 21.4801 5.20459 19.9645 5.20459 18.1067C5.20459 16.2489 6.84238 14.6845 7.38017 13.0222C7.91795 11.36 7.55128 9.08666 8.6024 7.64442C9.65352 6.20218 11.9024 5.8844 13.3447 4.80884C14.7869 3.73327 15.6669 1.72881 17.5003 1.16658C19.3336 0.604356 21.1425 1.67992 23.0003 1.67992C24.8581 1.67992 26.8381 0.6288 28.5004 1.16658C30.1626 1.70437 31.2137 3.78216 32.7782 4.80884C34.3426 5.83551 36.4693 6.20218 37.5204 7.64442C38.5716 9.08666 38.1804 11.3111 38.7427 13.0222C39.3049 14.7334 40.796 16.2489 40.796 18.1067Z" stroke="black" stroke-width="2" stroke-linecap="round" stroke-linejoin="round"/>
<path d="M18.1113 18.1071L21.3625 21.7738L27.8892 14.4404" stroke="black" stroke-width="2" stroke-linecap="round" stroke-linejoin="round"/>
</svg>
