<svg width="452" height="390" viewBox="0 0 452 390" fill="none" xmlns="http://www.w3.org/2000/svg">
<path d="M451 204.019V109.347L443.98 107C433.319 121.866 411.374 151.597 408.878 151.597H356.615L224.007 143.773H107V226.708L191.245 276C214.646 250.181 293.431 269.741 369.875 262.699C431.031 257.066 449.44 221.231 451 204.019Z" fill="#0D0D0D"/>
<path d="M155 111.423V27L236.003 34.8169L339.594 70.7746L391 138L176.03 120.803L155 111.423Z" fill="#0D0D0D"/>
<path d="M167 292.308V206.484L80.6085 194L2 201.022V286.066L91.5047 336L167 292.308Z" fill="#0D0D0D"/>
<path d="M2 201.784L81.3868 156L167 207.216L90.7264 253L2 201.784Z" fill="#FCFCFC" stroke="#0D0D0D" stroke-width="2"/>
<path d="M353.558 18.5923C267.146 -15.6225 186.443 7.18731 155.045 27.146L230.558 83.1342C278.683 53.5849 323.976 67.5819 333.318 90.1327C342.659 112.683 299.064 124.348 230.558 112.683C175.752 103.352 124.684 129.532 106 143.788L192.412 192C229.001 151.564 401.824 203.664 436.856 150.787C463.189 111.039 461.659 61.3948 353.558 18.5923Z" fill="#FCFCFC" stroke="#0D0D0D" stroke-width="2"/>
<path d="M375 316.963V264.306L371.122 263C365.234 271.269 353.113 287.806 351.735 287.806H322.868L249.626 283.454H185V329.583L231.531 357C244.456 342.639 287.971 353.519 330.193 349.602C363.971 346.469 374.138 326.537 375 316.963Z" fill="#0D0D0D"/>
<path d="M212 265.394V219L256.62 223.296L313.683 243.056L342 280L223.584 270.549L212 265.394Z" fill="#0D0D0D"/>
<path d="M218 365.692V317.945L170.354 311L127 314.907V362.22L176.363 390L218 365.692Z" fill="#0D0D0D"/>
<path d="M127 315.488L170.783 290L218 318.512L175.934 344L127 315.488Z" fill="#FCFCFC"/>
<path fill-rule="evenodd" clip-rule="evenodd" d="M170.807 290L219 319.003L175.948 345L126 315.996L170.807 290ZM128.203 315.996L175.937 343.715L216.858 319.005L170.796 291.284L128.203 315.996Z" fill="#0D0D0D"/>
<path d="M321.336 214.671C273.747 195.862 229.302 208.401 212.01 219.373L253.597 250.152C280.101 233.908 305.045 241.603 310.189 254C315.334 266.397 291.325 272.809 253.597 266.397C223.414 261.267 195.29 275.659 185 283.496L232.589 310C252.739 287.771 347.918 316.412 367.211 287.343C381.713 265.493 380.87 238.201 321.336 214.671Z" fill="#FCFCFC"/>
<path fill-rule="evenodd" clip-rule="evenodd" d="M213.057 219.069L253.791 249.361C267.061 241.28 279.957 239.139 290.229 240.6C300.555 242.069 308.315 247.201 310.996 253.691C311.673 255.331 311.883 256.904 311.623 258.384C311.364 259.865 310.641 261.212 309.518 262.408C307.286 264.785 303.455 266.594 298.364 267.788C288.165 270.18 272.612 270.169 253.668 266.934C224.258 261.911 196.774 275.607 186.016 283.541L232.595 309.607C235.198 306.878 238.888 304.939 243.346 303.565C247.98 302.137 253.485 301.309 259.548 300.857C270.086 300.071 282.392 300.417 294.875 300.768C296.751 300.821 298.63 300.873 300.509 300.923C314.91 301.299 329.233 301.459 341.158 299.704C353.108 297.946 362.484 294.288 367.18 287.178C374.39 276.263 377.718 264.1 371.977 251.757C366.215 239.368 351.251 226.641 321.455 214.809C274.55 196.181 230.722 208.212 213.057 219.069ZM211.781 218.562C229.251 207.425 273.984 194.765 321.862 213.779C351.739 225.644 367.034 238.509 372.978 251.289C378.943 264.115 375.426 276.699 368.1 287.79C363.127 295.318 353.326 299.033 341.318 300.8C329.286 302.57 314.871 302.406 300.48 302.03C298.597 301.98 296.715 301.927 294.839 301.875C282.348 301.524 270.107 301.18 259.63 301.961C253.608 302.41 248.194 303.23 243.67 304.624C239.143 306.019 235.547 307.976 233.114 310.673L232.819 311L184 283.681L184.669 283.169C195.054 275.222 223.396 260.641 253.854 265.842C272.726 269.065 288.115 269.054 298.113 266.71C303.121 265.536 306.702 263.793 308.714 261.649C309.713 260.585 310.319 259.43 310.536 258.193C310.753 256.955 310.587 255.595 309.976 254.114C307.499 248.119 300.18 243.134 290.074 241.696C279.997 240.263 267.233 242.381 254.05 250.5L253.732 250.695L211.103 218.995L211.781 218.562Z" fill="#0D0D0D"/>
</svg>
