<svg width="575" height="599" viewBox="0 0 575 599" fill="none" xmlns="http://www.w3.org/2000/svg">
<rect x="2.50514" width="145.149" height="185.988" rx="7.2317" transform="matrix(0.866025 -0.5 0.866025 0.5 10.2828 300.979)" fill="#FCFCFC" stroke="#0D0D0D" stroke-width="2.89268"/>
<path d="M172.882 388.647L295.537 317.832L295.537 306.906L139.046 227.482L213.823 305.789L16.6472 286.805L16.6473 298.451L172.882 388.647Z" fill="#0D0D0D"/>
<rect x="2.50514" width="145.149" height="185.988" rx="7.2317" transform="matrix(0.866025 -0.5 0.866025 0.5 10.2828 287.26)" fill="#FCFCFC" stroke="#0D0D0D" stroke-width="2.89268"/>
<ellipse cx="44.915" cy="299.548" rx="2.39291" ry="1.59527" fill="#090909"/>
<path fill-rule="evenodd" clip-rule="evenodd" d="M42.6028 318.297C39.956 320.745 36.6831 321.838 33.6581 320.923C28.391 319.331 25.8698 312.255 28.0269 305.12C30.1841 297.984 36.2027 293.491 41.4699 295.083C43.9822 295.842 45.8698 297.849 46.923 300.515C46.4902 300.935 45.6342 301.206 44.5015 301.282C43.7069 299.555 42.4323 298.282 40.7803 297.783C36.8565 296.597 32.2897 300.22 30.5801 305.875C28.8705 311.53 30.6654 317.076 34.5893 318.262C36.4315 318.819 38.4155 318.316 40.179 317.04L42.6028 318.297Z" fill="#676767"/>
<ellipse cx="71.3486" cy="314.863" rx="2.39291" ry="1.59527" fill="#090909"/>
<path fill-rule="evenodd" clip-rule="evenodd" d="M69.0365 333.612C66.3896 336.059 63.1167 337.152 60.0917 336.238C54.8246 334.646 52.3034 327.57 54.4605 320.435C56.6177 313.299 62.6363 308.805 67.9035 310.398C70.4158 311.157 72.3034 313.164 73.3566 315.83C72.9238 316.249 72.0678 316.521 70.9351 316.597C70.1405 314.869 68.8659 313.597 67.2139 313.098C63.2901 311.911 58.7233 315.534 57.0137 321.189C55.3041 326.845 57.0991 332.391 61.0229 333.577C62.8652 334.134 64.8492 333.631 66.6127 332.355L69.0365 333.612Z" fill="#676767"/>
<ellipse cx="97.8301" cy="330.177" rx="2.39291" ry="1.59527" fill="#090909"/>
<path fill-rule="evenodd" clip-rule="evenodd" d="M95.518 348.926C92.8711 351.374 89.5983 352.467 86.5733 351.552C81.3061 349.96 78.7849 342.885 80.9421 335.749C83.0992 328.614 89.1179 324.12 94.385 325.712C96.8974 326.472 98.785 328.479 99.8382 331.145C99.4054 331.564 98.5493 331.836 97.4167 331.912C96.6221 330.184 95.3475 328.912 93.6955 328.412C89.7717 327.226 85.2049 330.849 83.4952 336.504C81.7856 342.159 83.5806 347.705 87.5044 348.892C89.3467 349.449 91.3307 348.945 93.0942 347.67L95.518 348.926Z" fill="#676767"/>
<ellipse cx="124.312" cy="345.492" rx="2.39291" ry="1.59527" fill="#090909"/>
<path fill-rule="evenodd" clip-rule="evenodd" d="M122 364.241C119.353 366.689 116.08 367.782 113.055 366.867C107.788 365.275 105.266 358.199 107.424 351.064C109.581 343.928 115.599 339.435 120.867 341.027C123.379 341.786 125.267 343.793 126.32 346.459C125.887 346.879 125.031 347.15 123.898 347.226C123.104 345.499 121.829 344.226 120.177 343.727C116.253 342.541 111.686 346.164 109.977 351.819C108.267 357.474 110.062 363.02 113.986 364.206C115.828 364.763 117.812 364.26 119.576 362.984L122 364.241Z" fill="#676767"/>
<ellipse cx="150.793" cy="360.488" rx="2.39291" ry="1.59527" fill="#090909"/>
<path fill-rule="evenodd" clip-rule="evenodd" d="M148.481 379.236C145.834 381.684 142.561 382.777 139.536 381.863C134.269 380.27 131.748 373.195 133.905 366.059C136.062 358.924 142.081 354.43 147.348 356.022C149.861 356.782 151.748 358.789 152.801 361.455C152.368 361.874 151.512 362.146 150.38 362.222C149.585 360.494 148.311 359.222 146.659 358.722C142.735 357.536 138.168 361.159 136.458 366.814C134.749 372.469 136.544 378.015 140.468 379.202C142.31 379.759 144.294 379.255 146.057 377.98L148.481 379.236Z" fill="#676767"/>
<rect x="0.626284" width="91.8027" height="42.6683" rx="12.6555" transform="matrix(0.866025 -0.5 0.866025 0.5 60.4417 281.216)" fill="#FCFCFC" stroke="#0D0D0D" stroke-width="0.72317"/>
<rect width="79.4446" height="0.319055" transform="matrix(0.866025 -0.5 0.866025 0.5 89.094 290.793)" fill="#D9D9D9"/>
<rect width="79.4446" height="0.319055" transform="matrix(0.866025 -0.5 0.866025 0.5 97.3833 295.579)" fill="#D9D9D9"/>
<rect width="79.4446" height="0.319055" transform="matrix(0.866025 -0.5 0.866025 0.5 80.8047 286.007)" fill="#D9D9D9"/>
<rect width="79.4446" height="0.319055" transform="matrix(0.866025 -0.5 0.866025 0.5 72.5154 281.222)" fill="#D9D9D9"/>
<path d="M89.1602 279.999C90.6232 279.155 90.5932 278.027 89.1803 277.211C87.7473 276.384 85.8334 276.378 84.3604 277.228L81.4644 278.9L88.7895 283.129L90.0721 282.389L87.5469 280.931L89.1602 279.999ZM85.2522 278.032C86.104 277.541 87.0258 277.517 87.8275 277.98C88.6291 278.443 88.6291 278.987 87.7473 279.496L86.4046 280.271L83.8894 278.819L85.2522 278.032ZM96.2415 278.827L88.7862 274.523L87.5737 275.223L95.029 279.527L96.2415 278.827ZM99.1271 277.311C99.8987 276.866 100.219 276.276 99.9188 275.859L100.74 276.229L101.813 275.61L98.8065 273.875C97.4337 273.082 95.8905 273.14 94.5578 273.909C93.215 274.685 93.0346 275.599 94.1068 276.218L95.149 275.616C94.6279 275.315 94.7281 274.91 95.4496 274.494C96.0709 274.135 96.7422 274.06 97.4136 274.447L97.5239 274.511L96.151 275.431C95.0688 276.16 94.9786 276.872 95.8905 277.398C96.8224 277.936 98.075 277.919 99.1271 277.311ZM98.6061 276.548C98.0549 276.866 97.5339 276.912 97.0829 276.652C96.6821 276.42 96.7222 276.108 97.4136 275.628L98.3656 274.986L98.6261 275.136C99.3877 275.576 99.3576 276.114 98.6061 276.548ZM104.236 274.211L101.571 272.672C100.769 272.209 100.709 271.642 101.46 271.209C102.092 270.844 102.903 270.838 103.735 271.318L106.491 272.909L107.713 272.204L104.667 270.445C103.384 269.704 101.971 269.629 100.729 270.347C100.058 270.734 99.7469 271.249 99.9373 271.718L99.1958 271.405L98.0635 272.059L103.014 274.917L104.236 274.211ZM110.137 270.804L107.471 269.265C106.67 268.803 106.61 268.236 107.361 267.802C107.992 267.437 108.804 267.431 109.636 267.912L112.392 269.503L113.614 268.797L110.568 267.038C109.285 266.298 107.872 266.222 106.63 266.94C105.958 267.327 105.648 267.842 105.838 268.311L105.097 267.998L103.964 268.652L108.914 271.51L110.137 270.804ZM117.16 266.9C118.453 266.154 118.703 265.257 117.831 264.511L116.699 265.164C117.03 265.517 116.849 265.922 116.178 266.31C115.366 266.778 114.464 266.79 113.502 266.339L117.22 264.181L116.849 263.967C115.306 263.076 113.372 263.047 111.889 263.903C110.436 264.742 110.496 265.945 112.049 266.842C113.583 267.727 115.687 267.75 117.16 266.9ZM112.901 264.476C113.633 264.054 114.555 264.042 115.236 264.435L112.751 265.87C112.13 265.373 112.18 264.892 112.901 264.476ZM118.529 260.22C118.279 260.307 118.088 260.394 117.918 260.492C117.257 260.874 117.116 261.337 117.397 261.742L116.605 261.365L115.453 262.031L120.393 264.883L121.616 264.177L119.211 262.789C118.249 262.233 118.329 261.643 119.211 261.134L119.661 260.874L118.529 260.22Z" fill="#0D0D0D"/>
<rect width="151.924" height="187.759" transform="matrix(0.866025 -0.5 2.20305e-08 1 0 80.2378)" fill="#151515"/>
<path d="M137.539 8.31387L131.482 4.27603L130.725 6.29495C130.557 7.22029 130.22 9.12144 130.22 9.32333C130.22 9.52522 130.725 11.7629 130.977 12.8564L134.006 11.0899L137.539 8.31387Z" fill="#151515"/>
<path d="M0 267.997L6.05676 272.035L6.30912 263.707H5.29966L1.51419 264.464L0 267.997Z" fill="#151515"/>
<rect x="0.939426" y="0.542378" width="149.754" height="185.59" transform="matrix(0.866025 -0.5 2.20305e-08 1 6.18261 84.7454)" fill="#FCFCFC" stroke="#0D0D0D" stroke-width="2.16951"/>
<rect width="34.7002" height="0.462669" transform="matrix(0.866025 -0.5 2.20305e-08 1 20.9184 190.353)" fill="#0D0D0D"/>
<rect width="34.7002" height="0.462669" transform="matrix(0.866025 -0.5 2.20305e-08 1 20.9185 229.47)" fill="#0D0D0D"/>
<rect width="34.7002" height="0.462669" transform="matrix(0.866025 -0.5 2.20305e-08 1 55.3408 170.479)" fill="#0D0D0D"/>
<rect width="34.7002" height="0.462669" transform="matrix(0.866025 -0.5 2.20305e-08 1 55.3408 209.596)" fill="#0D0D0D"/>
<rect width="34.7002" height="0.462669" transform="matrix(0.866025 -0.5 2.20305e-08 1 89.7631 150.606)" fill="#0D0D0D"/>
<rect width="34.7002" height="0.462669" transform="matrix(0.866025 -0.5 2.20305e-08 1 89.5445 190.101)" fill="#0D0D0D"/>
<path d="M25.3581 189.192C24.837 189.492 24.3594 189.652 23.9252 189.672C23.4976 189.687 23.1603 189.566 22.9131 189.307C22.6659 189.041 22.5423 188.665 22.5423 188.179L22.5423 185.148C22.5423 184.662 22.6659 184.147 22.9131 183.603C23.1603 183.051 23.4976 182.536 23.9252 182.058C24.3594 181.576 24.837 181.185 25.3581 180.884C25.8792 180.583 26.3535 180.429 26.781 180.421C27.2152 180.402 27.5559 180.521 27.8031 180.78C28.057 181.034 28.1839 181.404 28.1839 181.89L28.1839 184.922C28.1839 185.408 28.057 185.925 27.8031 186.472C27.5559 187.016 27.2152 187.533 26.781 188.023C26.3535 188.501 25.8792 188.891 25.3581 189.192ZM25.3581 187.838C25.8124 187.576 26.1731 187.248 26.4403 186.854C26.7075 186.453 26.8411 186.052 26.8411 185.651L26.8411 182.712C26.8411 182.311 26.7075 182.068 26.4403 181.983C26.1731 181.89 25.8124 181.975 25.3581 182.238C24.9038 182.5 24.5431 182.832 24.2759 183.233C24.0087 183.626 23.8751 184.023 23.8751 184.424L23.8751 187.363C23.8751 187.765 24.0087 188.011 24.2759 188.104C24.5431 188.189 24.9038 188.1 25.3581 187.838ZM23.7247 201.262L23.2137 201.557C22.9331 201.719 22.7093 201.728 22.5423 201.586C22.3753 201.435 22.2918 201.159 22.2918 200.758L24.4462 199.514C24.6199 199.414 24.7669 199.395 24.8871 199.457C25.0074 199.518 25.0675 199.638 25.0675 199.815L25.0675 206.214C25.0675 206.584 24.9506 206.937 24.7168 207.273C24.4896 207.597 24.159 207.884 23.7247 208.135L23.7247 201.262Z" fill="#0D0D0D"/>
<path d="M25.3581 228.308C24.837 228.609 24.3594 228.769 23.9252 228.788C23.4976 228.804 23.1603 228.682 22.9131 228.424C22.6659 228.158 22.5423 227.782 22.5423 227.296L22.5423 224.264C22.5423 223.778 22.6659 223.263 22.9131 222.72C23.1603 222.168 23.4976 221.653 23.9252 221.175C24.3594 220.693 24.837 220.301 25.3581 220C25.8792 219.7 26.3535 219.545 26.781 219.538C27.2152 219.518 27.5559 219.638 27.8031 219.896C28.057 220.151 28.1839 220.521 28.1839 221.007L28.1839 224.039C28.1839 224.525 28.057 225.041 27.8031 225.589C27.5559 226.133 27.2152 226.65 26.781 227.14C26.3535 227.618 25.8792 228.007 25.3581 228.308ZM25.3581 226.954C25.8124 226.692 26.1731 226.364 26.4403 225.971C26.7075 225.57 26.8411 225.169 26.8411 224.768L26.8411 221.829C26.8411 221.427 26.7075 221.184 26.4403 221.1C26.1731 221.007 25.8124 221.092 25.3581 221.354C24.9038 221.616 24.5431 221.948 24.2759 222.349C24.0087 222.743 23.8751 223.14 23.8751 223.541L23.8751 226.48C23.8751 226.881 24.0087 227.128 24.2759 227.221C24.5431 227.305 24.9038 227.217 25.3581 226.954ZM25.779 243.959L22.853 245.649C22.6793 245.749 22.5423 245.774 22.4421 245.724C22.3419 245.674 22.2918 245.56 22.2918 245.383C22.2918 245.182 22.3386 244.997 22.4321 244.827L25.9493 237.902C26.0027 237.794 26.0829 237.69 26.1898 237.59C26.2967 237.482 26.4102 237.393 26.5305 237.324C26.7042 237.223 26.8478 237.206 26.9614 237.271C27.0749 237.329 27.1317 237.455 27.1317 237.647L27.1317 241.859L28.2841 241.194C28.2841 241.657 28.2139 242.033 28.0737 242.322C27.9401 242.607 27.7263 242.835 27.4323 243.005L27.1317 243.178L27.1317 244.301C27.1317 244.64 27.0215 244.954 26.801 245.244C26.5873 245.521 26.2466 245.795 25.779 246.065L25.779 243.959ZM25.8591 242.594L25.8591 240.268L26.2299 239.487L26.1497 239.476L24.0454 243.641L25.8591 242.594Z" fill="#0D0D0D"/>
<path d="M59.7804 169.318C59.2593 169.619 58.7817 169.779 58.3475 169.798C57.9199 169.813 57.5826 169.692 57.3354 169.434C57.0882 169.167 56.9646 168.791 56.9646 168.305L56.9646 165.274C56.9646 164.788 57.0882 164.273 57.3354 163.729C57.5826 163.178 57.9199 162.663 58.3475 162.185C58.7817 161.702 59.2593 161.311 59.7804 161.01C60.3015 160.709 60.7758 160.555 61.2033 160.547C61.6375 160.528 61.9782 160.648 62.2254 160.906C62.4793 161.161 62.6062 161.531 62.6062 162.017L62.6062 165.048C62.6062 165.534 62.4793 166.051 62.2254 166.599C61.9782 167.143 61.6375 167.659 61.2033 168.149C60.7758 168.627 60.3015 169.017 59.7804 169.318ZM59.7804 167.964C60.2347 167.702 60.5954 167.374 60.8626 166.981C61.1298 166.579 61.2634 166.178 61.2634 165.777L61.2634 162.838C61.2634 162.437 61.1298 162.194 60.8626 162.109C60.5954 162.017 60.2347 162.102 59.7804 162.364C59.3261 162.626 58.9654 162.958 58.6982 163.359C58.431 163.752 58.2974 164.15 58.2974 164.551L58.2974 167.49C58.2974 167.891 58.431 168.138 58.6982 168.23C58.9654 168.315 59.3261 168.226 59.7804 167.964ZM57.4256 188.573C57.2385 188.681 57.0882 188.706 56.9747 188.649C56.8678 188.587 56.8143 188.456 56.8143 188.255C56.8143 187.653 57.0181 186.988 57.4256 186.259C57.8398 185.519 58.4878 184.662 59.3696 183.69C59.7904 183.231 60.1111 182.85 60.3315 182.545C60.552 182.233 60.7056 181.955 60.7925 181.712C60.886 181.457 60.9328 181.191 60.9328 180.913C60.9328 180.528 60.8192 180.296 60.5921 180.219C60.3649 180.134 60.0443 180.212 59.6301 180.451C58.6815 180.998 58.2072 181.723 58.2072 182.626C58.2072 182.834 58.2205 183.008 58.2473 183.147C58.1871 183.197 58.1003 183.255 57.9867 183.32C57.6794 183.498 57.4156 183.55 57.1951 183.476C56.9813 183.392 56.8745 183.199 56.8745 182.898C56.8745 182.489 56.9947 182.045 57.2352 181.567C57.4757 181.089 57.8064 180.632 58.2272 180.196C58.6481 179.76 59.1157 179.394 59.6301 179.097C60.1578 178.792 60.6221 178.632 61.023 178.617C61.4305 178.59 61.7444 178.709 61.9649 178.975C62.1853 179.234 62.2956 179.618 62.2956 180.127C62.2956 180.698 62.1119 181.324 61.7444 182.007C61.377 182.682 60.8192 183.432 60.071 184.257C59.4898 184.902 59.0589 185.424 58.7784 185.825C58.5045 186.215 58.3575 186.516 58.3375 186.728L61.3837 184.969C61.7177 184.776 61.9716 184.741 62.1453 184.865C62.3189 184.988 62.4058 185.266 62.4058 185.698L57.4256 188.573Z" fill="#0D0D0D"/>
<path d="M59.7804 208.434C59.2593 208.735 58.7817 208.895 58.3475 208.915C57.9199 208.93 57.5826 208.809 57.3354 208.55C57.0882 208.284 56.9646 207.908 56.9646 207.422L56.9646 204.39C56.9646 203.905 57.0882 203.39 57.3354 202.846C57.5826 202.294 57.9199 201.779 58.3475 201.301C58.7817 200.819 59.2593 200.428 59.7804 200.127C60.3015 199.826 60.7758 199.672 61.2033 199.664C61.6375 199.645 61.9782 199.764 62.2254 200.023C62.4793 200.277 62.6062 200.647 62.6062 201.133L62.6062 204.165C62.6062 204.651 62.4793 205.168 62.2254 205.715C61.9782 206.259 61.6375 206.776 61.2033 207.266C60.7758 207.744 60.3015 208.134 59.7804 208.434ZM59.7804 207.081C60.2347 206.818 60.5954 206.491 60.8626 206.097C61.1298 205.696 61.2634 205.295 61.2634 204.894L61.2634 201.955C61.2634 201.554 61.1298 201.311 60.8626 201.226C60.5954 201.133 60.2347 201.218 59.7804 201.48C59.3261 201.743 58.9654 202.074 58.6982 202.476C58.431 202.869 58.2974 203.266 58.2974 203.667L58.2974 206.606C58.2974 207.007 58.431 207.254 58.6982 207.347C58.9654 207.432 59.3261 207.343 59.7804 207.081ZM59.57 226.556C59.0623 226.849 58.598 227.025 58.1771 227.082C57.7563 227.133 57.4222 227.063 57.1751 226.874C56.9346 226.681 56.8143 226.384 56.8143 225.983C56.8143 225.644 56.8978 225.349 57.0648 225.098C57.2319 224.847 57.4957 224.618 57.8565 224.41L58.0669 224.3C58.0469 224.435 58.0368 224.595 58.0368 224.78C58.0368 225.189 58.1738 225.43 58.4477 225.503C58.7216 225.576 59.0957 225.476 59.57 225.202C60.0643 224.917 60.4418 224.552 60.7023 224.109C60.9695 223.654 61.1031 223.152 61.1031 222.605C61.1031 222.088 60.9662 221.766 60.6923 221.638C60.4184 221.511 60.0376 221.588 59.5499 221.87C59.0155 222.178 58.5612 222.603 58.1871 223.143C58.0201 223.378 57.8464 223.548 57.6661 223.652C57.4857 223.756 57.3321 223.783 57.2051 223.733C57.0782 223.675 57.0147 223.546 57.0147 223.345C57.0147 223.291 57.0181 223.247 57.0248 223.212L57.4256 220.146C57.4523 219.945 57.5191 219.768 57.626 219.614C57.7396 219.455 57.8865 219.324 58.0669 219.22L62.0952 216.894C62.0952 217.774 61.7845 218.393 61.1632 218.751L58.4577 220.314L58.2773 221.656C58.1103 221.883 57.9734 222.094 57.8665 222.286L57.9166 222.327C58.1704 221.933 58.4744 221.561 58.8285 221.21C59.1892 220.855 59.5433 220.578 59.8906 220.377C60.3983 220.084 60.8392 219.949 61.2133 219.972C61.5941 219.991 61.8847 220.163 62.0851 220.487C62.2922 220.807 62.3958 221.264 62.3958 221.858C62.3958 222.483 62.2822 223.092 62.0551 223.686C61.8279 224.28 61.5006 224.824 61.0731 225.318C60.6522 225.808 60.1512 226.22 59.57 226.556Z" fill="#0D0D0D"/>
<path d="M94.2027 149.444C93.6817 149.745 93.204 149.905 92.7698 149.924C92.3422 149.94 92.0049 149.818 91.7577 149.56C91.5105 149.294 91.387 148.918 91.387 148.432L91.387 145.4C91.387 144.914 91.5105 144.399 91.7577 143.856C92.0049 143.304 92.3422 142.789 92.7698 142.311C93.204 141.829 93.6817 141.437 94.2027 141.136C94.7238 140.836 95.1981 140.681 95.6256 140.674C96.0599 140.654 96.4006 140.774 96.6477 141.032C96.9016 141.287 97.0285 141.657 97.0285 142.143L97.0285 145.175C97.0285 145.661 96.9016 146.177 96.6477 146.725C96.4006 147.269 96.0599 147.786 95.6256 148.276C95.1981 148.754 94.7238 149.143 94.2027 149.444ZM94.2027 148.09C94.657 147.828 95.0177 147.5 95.2849 147.107C95.5522 146.706 95.6858 146.305 95.6858 145.904L95.6858 142.965C95.6858 142.563 95.5522 142.32 95.2849 142.236C95.0177 142.143 94.657 142.228 94.2027 142.49C93.7485 142.752 93.3877 143.084 93.1205 143.485C92.8533 143.879 92.7197 144.276 92.7197 144.677L92.7197 147.616C92.7197 148.017 92.8533 148.264 93.1205 148.357C93.3877 148.441 93.7485 148.353 94.2027 148.09ZM94.0624 167.525C93.5146 167.841 93.027 168.03 92.5994 168.092C92.1719 168.146 91.8379 168.073 91.5974 167.872C91.3569 167.664 91.2366 167.34 91.2366 166.9C91.2366 166.538 91.3369 166.218 91.5373 165.94C91.7444 165.658 92.0784 165.385 92.5393 165.118C92.5193 165.277 92.5093 165.456 92.5093 165.656C92.5093 166.119 92.6395 166.399 92.9001 166.495C93.1673 166.58 93.5547 166.476 94.0624 166.183C94.5635 165.894 94.9409 165.583 95.1948 165.252C95.4553 164.916 95.5856 164.567 95.5856 164.204C95.5856 163.448 95.1413 163.327 94.2528 163.84L93.9222 164.031C93.7551 164.127 93.6182 164.145 93.5113 164.083C93.4044 164.021 93.351 163.894 93.351 163.701C93.351 163.5 93.4011 163.313 93.5013 163.14C93.6082 162.955 93.7485 162.812 93.9222 162.712L94.2628 162.515C95.0111 162.083 95.3852 161.516 95.3852 160.814C95.3852 160.482 95.2749 160.295 95.0545 160.253C94.834 160.203 94.5167 160.297 94.1025 160.536C93.6483 160.799 93.2975 161.094 93.0504 161.422C92.8032 161.742 92.6796 162.071 92.6796 162.411C92.6796 162.557 92.693 162.716 92.7197 162.885C92.3322 163.124 92.0149 163.23 91.7677 163.203C91.5272 163.173 91.407 163.015 91.407 162.729C91.407 162.343 91.5206 161.935 91.7477 161.503C91.9748 161.071 92.2921 160.656 92.6996 160.259C93.1138 159.85 93.5815 159.495 94.1025 159.194C94.6303 158.89 95.0946 158.718 95.4954 158.679C95.8962 158.641 96.2035 158.741 96.4173 158.98C96.6377 159.208 96.7479 159.557 96.7479 160.027C96.7479 160.752 96.4239 161.51 95.776 162.301C96.1968 162.266 96.4941 162.338 96.6678 162.515C96.8481 162.689 96.9383 162.991 96.9383 163.423C96.9383 163.909 96.8181 164.407 96.5776 164.916C96.3371 165.425 95.9997 165.905 95.5655 166.357C95.1313 166.808 94.6303 167.197 94.0624 167.525Z" fill="#0D0D0D"/>
<path d="M93.9842 188.939C93.4631 189.24 92.9855 189.4 92.5512 189.419C92.1237 189.435 91.7863 189.313 91.5392 189.055C91.292 188.789 91.1684 188.413 91.1684 187.927L91.1684 184.895C91.1684 184.409 91.292 183.894 91.5392 183.351C91.7863 182.799 92.1237 182.284 92.5512 181.806C92.9855 181.324 93.4631 180.932 93.9842 180.632C94.5052 180.331 94.9795 180.176 95.4071 180.169C95.8413 180.149 96.182 180.269 96.4292 180.527C96.683 180.782 96.81 181.152 96.81 181.638L96.81 184.67C96.81 185.156 96.683 185.672 96.4292 186.22C96.182 186.764 95.8413 187.281 95.4071 187.771C94.9795 188.249 94.5052 188.638 93.9842 188.939ZM93.9842 187.586C94.4384 187.323 94.7992 186.995 95.0664 186.602C95.3336 186.201 95.4672 185.8 95.4672 185.399L95.4672 182.46C95.4672 182.059 95.3336 181.816 95.0664 181.731C94.7992 181.638 94.4384 181.723 93.9842 181.985C93.5299 182.248 93.1692 182.579 92.902 182.98C92.6347 183.374 92.5011 183.771 92.5011 184.172L92.5011 187.111C92.5011 187.512 92.6347 187.759 92.902 187.852C93.1692 187.936 93.5299 187.848 93.9842 187.586ZM93.9341 206.968C93.3596 207.3 92.8519 207.462 92.411 207.454C91.97 207.446 91.626 207.275 91.3788 206.939C91.1383 206.6 91.0181 206.122 91.0181 205.505C91.0181 205.103 91.0916 204.652 91.2385 204.151C91.3922 203.638 91.5993 203.136 91.8598 202.647L93.7737 199.1C93.8739 198.911 93.9708 198.766 94.0643 198.666C94.1645 198.554 94.2815 198.46 94.4151 198.383C94.7691 198.178 95.0631 198.171 95.2969 198.36L93.9942 200.813C93.914 200.874 93.8138 200.963 93.6936 201.079C93.5733 201.194 93.4765 201.297 93.403 201.385L93.4631 201.489C93.5834 201.351 93.7337 201.21 93.914 201.067C94.0944 200.917 94.2547 200.801 94.395 200.72C94.8626 200.45 95.2835 200.33 95.6576 200.361C96.0317 200.392 96.3256 200.562 96.5394 200.87C96.7532 201.179 96.8601 201.599 96.8601 202.132C96.8601 202.749 96.7365 203.368 96.4893 203.989C96.2421 204.602 95.8981 205.171 95.4572 205.695C95.0163 206.212 94.5086 206.637 93.9341 206.968ZM93.9341 205.638C94.4151 205.36 94.8059 204.968 95.1065 204.463C95.4071 203.95 95.5574 203.424 95.5574 202.884C95.5574 202.344 95.4071 201.991 95.1065 201.825C94.8059 201.659 94.4151 201.715 93.9341 201.993C93.4598 202.267 93.0723 202.66 92.7717 203.173C92.4778 203.682 92.3308 204.207 92.3308 204.747C92.3308 205.287 92.4778 205.641 92.7717 205.811C93.0723 205.969 93.4598 205.911 93.9341 205.638Z" fill="#0D0D0D"/>
<circle cx="1.26182" cy="1.26182" r="1.26182" transform="matrix(0.866025 -0.5 2.20305e-08 1 22.5576 192.477)" fill="#0D0D0D"/>
<circle cx="1.26182" cy="1.26182" r="1.26182" transform="matrix(0.866025 -0.5 2.20305e-08 1 22.5576 231.594)" fill="#0D0D0D"/>
<circle cx="1.26182" cy="1.26182" r="1.26182" transform="matrix(0.866025 -0.5 2.20305e-08 1 56.9799 172.603)" fill="#0D0D0D"/>
<circle cx="1.26182" cy="1.26182" r="1.26182" transform="matrix(0.866025 -0.5 2.20305e-08 1 56.9799 211.72)" fill="#0D0D0D"/>
<circle cx="1.26182" cy="1.26182" r="1.26182" transform="matrix(0.866025 -0.5 2.20305e-08 1 91.4022 152.73)" fill="#0D0D0D"/>
<circle cx="1.26182" cy="1.26182" r="1.26182" transform="matrix(0.866025 -0.5 2.20305e-08 1 91.1837 192.225)" fill="#0D0D0D"/>
<circle cx="1.26182" cy="1.26182" r="1.26182" transform="matrix(0.866025 -0.5 2.20305e-08 1 22.5576 196.893)" fill="#0D0D0D"/>
<circle cx="1.26182" cy="1.26182" r="1.26182" transform="matrix(0.866025 -0.5 2.20305e-08 1 22.5576 236.01)" fill="#0D0D0D"/>
<circle cx="1.26182" cy="1.26182" r="1.26182" transform="matrix(0.866025 -0.5 2.20305e-08 1 56.9799 177.02)" fill="#0D0D0D"/>
<circle cx="1.26182" cy="1.26182" r="1.26182" transform="matrix(0.866025 -0.5 2.20305e-08 1 56.9799 216.136)" fill="#0D0D0D"/>
<circle cx="1.26182" cy="1.26182" r="1.26182" transform="matrix(0.866025 -0.5 2.20305e-08 1 91.4023 157.146)" fill="#0D0D0D"/>
<circle cx="1.26182" cy="1.26182" r="1.26182" transform="matrix(0.866025 -0.5 2.20305e-08 1 91.1837 196.641)" fill="#0D0D0D"/>
<circle cx="1.26182" cy="1.26182" r="1.26182" transform="matrix(0.866025 -0.5 2.20305e-08 1 22.5576 201.31)" fill="#0D0D0D"/>
<circle cx="1.26182" cy="1.26182" r="1.26182" transform="matrix(0.866025 -0.5 2.20305e-08 1 22.5576 240.426)" fill="#0D0D0D"/>
<circle cx="1.26182" cy="1.26182" r="1.26182" transform="matrix(0.866025 -0.5 2.20305e-08 1 56.9799 181.436)" fill="#0D0D0D"/>
<circle cx="1.26182" cy="1.26182" r="1.26182" transform="matrix(0.866025 -0.5 2.20305e-08 1 56.9799 220.553)" fill="#0D0D0D"/>
<circle cx="1.26182" cy="1.26182" r="1.26182" transform="matrix(0.866025 -0.5 2.20305e-08 1 91.4023 161.562)" fill="#0D0D0D"/>
<circle cx="1.26182" cy="1.26182" r="1.26182" transform="matrix(0.866025 -0.5 2.20305e-08 1 91.1837 201.058)" fill="#0D0D0D"/>
<circle cx="1.26182" cy="1.26182" r="1.26182" transform="matrix(0.866025 -0.5 2.20305e-08 1 22.5576 205.726)" fill="#0D0D0D"/>
<circle cx="1.26182" cy="1.26182" r="1.26182" transform="matrix(0.866025 -0.5 2.20305e-08 1 22.5576 244.843)" fill="#0D0D0D"/>
<circle cx="1.26182" cy="1.26182" r="1.26182" transform="matrix(0.866025 -0.5 2.20305e-08 1 56.9799 185.853)" fill="#0D0D0D"/>
<circle cx="1.26182" cy="1.26182" r="1.26182" transform="matrix(0.866025 -0.5 2.20305e-08 1 56.9799 224.969)" fill="#0D0D0D"/>
<circle cx="1.26182" cy="1.26182" r="1.26182" transform="matrix(0.866025 -0.5 2.20305e-08 1 91.4023 165.979)" fill="#0D0D0D"/>
<circle cx="1.26182" cy="1.26182" r="1.26182" transform="matrix(0.866025 -0.5 2.20305e-08 1 91.1837 205.474)" fill="#0D0D0D"/>
<circle cx="1.26182" cy="1.26182" r="1.26182" transform="matrix(0.866025 -0.5 2.20305e-08 1 26.3823 190.269)" fill="#0D0D0D"/>
<circle cx="1.26182" cy="1.26182" r="1.26182" transform="matrix(0.866025 -0.5 2.20305e-08 1 26.3823 229.385)" fill="#0D0D0D"/>
<circle cx="1.26182" cy="1.26182" r="1.26182" transform="matrix(0.866025 -0.5 2.20305e-08 1 60.8046 170.395)" fill="#0D0D0D"/>
<circle cx="1.26182" cy="1.26182" r="1.26182" transform="matrix(0.866025 -0.5 2.20305e-08 1 60.8046 209.512)" fill="#0D0D0D"/>
<circle cx="1.26182" cy="1.26182" r="1.26182" transform="matrix(0.866025 -0.5 2.20305e-08 1 95.227 150.521)" fill="#0D0D0D"/>
<circle cx="1.26182" cy="1.26182" r="1.26182" transform="matrix(0.866025 -0.5 2.20305e-08 1 95.0084 190.017)" fill="#0D0D0D"/>
<circle cx="1.26182" cy="1.26182" r="1.26182" transform="matrix(0.866025 -0.5 2.20305e-08 1 26.3823 194.685)" fill="#0D0D0D"/>
<circle cx="1.26182" cy="1.26182" r="1.26182" transform="matrix(0.866025 -0.5 2.20305e-08 1 26.3823 233.802)" fill="#0D0D0D"/>
<circle cx="1.26182" cy="1.26182" r="1.26182" transform="matrix(0.866025 -0.5 2.20305e-08 1 60.8046 174.812)" fill="#0D0D0D"/>
<circle cx="1.26182" cy="1.26182" r="1.26182" transform="matrix(0.866025 -0.5 2.20305e-08 1 60.8046 213.928)" fill="#0D0D0D"/>
<circle cx="1.26182" cy="1.26182" r="1.26182" transform="matrix(0.866025 -0.5 2.20305e-08 1 95.227 154.938)" fill="#0D0D0D"/>
<circle cx="1.26182" cy="1.26182" r="1.26182" transform="matrix(0.866025 -0.5 2.20305e-08 1 95.0084 194.433)" fill="#0D0D0D"/>
<circle cx="1.26182" cy="1.26182" r="1.26182" transform="matrix(0.866025 -0.5 2.20305e-08 1 26.3823 199.102)" fill="#0D0D0D"/>
<circle cx="1.26182" cy="1.26182" r="1.26182" transform="matrix(0.866025 -0.5 2.20305e-08 1 26.3823 238.218)" fill="#0D0D0D"/>
<circle cx="1.26182" cy="1.26182" r="1.26182" transform="matrix(0.866025 -0.5 2.20305e-08 1 60.8046 179.228)" fill="#0D0D0D"/>
<circle cx="1.26182" cy="1.26182" r="1.26182" transform="matrix(0.866025 -0.5 2.20305e-08 1 60.8046 218.345)" fill="#0D0D0D"/>
<circle cx="1.26182" cy="1.26182" r="1.26182" transform="matrix(0.866025 -0.5 2.20305e-08 1 95.227 159.354)" fill="#0D0D0D"/>
<circle cx="1.26182" cy="1.26182" r="1.26182" transform="matrix(0.866025 -0.5 2.20305e-08 1 95.0084 198.849)" fill="#0D0D0D"/>
<circle cx="1.26182" cy="1.26182" r="1.26182" transform="matrix(0.866025 -0.5 2.20305e-08 1 26.3823 203.518)" fill="#0D0D0D"/>
<circle cx="1.26182" cy="1.26182" r="1.26182" transform="matrix(0.866025 -0.5 2.20305e-08 1 26.3823 242.635)" fill="#0D0D0D"/>
<circle cx="1.26182" cy="1.26182" r="1.26182" transform="matrix(0.866025 -0.5 2.20305e-08 1 60.8046 183.644)" fill="#0D0D0D"/>
<circle cx="1.26182" cy="1.26182" r="1.26182" transform="matrix(0.866025 -0.5 2.20305e-08 1 60.8046 222.761)" fill="#0D0D0D"/>
<circle cx="1.26182" cy="1.26182" r="1.26182" transform="matrix(0.866025 -0.5 2.20305e-08 1 95.227 163.771)" fill="#0D0D0D"/>
<circle cx="1.26182" cy="1.26182" r="1.26182" transform="matrix(0.866025 -0.5 2.20305e-08 1 95.0084 203.266)" fill="#0D0D0D"/>
<circle cx="1.26182" cy="1.26182" r="1.26182" transform="matrix(0.866025 -0.5 2.20305e-08 1 30.207 188.061)" fill="#0D0D0D"/>
<circle cx="1.26182" cy="1.26182" r="1.26182" transform="matrix(0.866025 -0.5 2.20305e-08 1 30.207 227.177)" fill="#0D0D0D"/>
<circle cx="1.26182" cy="1.26182" r="1.26182" transform="matrix(0.866025 -0.5 2.20305e-08 1 64.6293 168.187)" fill="#0D0D0D"/>
<circle cx="1.26182" cy="1.26182" r="1.26182" transform="matrix(0.866025 -0.5 2.20305e-08 1 64.6293 207.304)" fill="#0D0D0D"/>
<circle cx="1.26182" cy="1.26182" r="1.26182" transform="matrix(0.866025 -0.5 2.20305e-08 1 99.0517 148.313)" fill="#0D0D0D"/>
<circle cx="1.26182" cy="1.26182" r="1.26182" transform="matrix(0.866025 -0.5 2.20305e-08 1 98.8331 187.808)" fill="#0D0D0D"/>
<circle cx="1.26182" cy="1.26182" r="1.26182" transform="matrix(0.866025 -0.5 2.20305e-08 1 30.207 192.477)" fill="#0D0D0D"/>
<circle cx="1.26182" cy="1.26182" r="1.26182" transform="matrix(0.866025 -0.5 2.20305e-08 1 30.207 231.594)" fill="#0D0D0D"/>
<circle cx="1.26182" cy="1.26182" r="1.26182" transform="matrix(0.866025 -0.5 2.20305e-08 1 64.6293 172.603)" fill="#0D0D0D"/>
<circle cx="1.26182" cy="1.26182" r="1.26182" transform="matrix(0.866025 -0.5 2.20305e-08 1 64.6293 211.72)" fill="#0D0D0D"/>
<circle cx="1.26182" cy="1.26182" r="1.26182" transform="matrix(0.866025 -0.5 2.20305e-08 1 99.0517 152.73)" fill="#0D0D0D"/>
<circle cx="1.26182" cy="1.26182" r="1.26182" transform="matrix(0.866025 -0.5 2.20305e-08 1 98.8331 192.225)" fill="#0D0D0D"/>
<circle cx="1.26182" cy="1.26182" r="1.26182" transform="matrix(0.866025 -0.5 2.20305e-08 1 30.207 196.893)" fill="#0D0D0D"/>
<circle cx="1.26182" cy="1.26182" r="1.26182" transform="matrix(0.866025 -0.5 2.20305e-08 1 30.207 236.01)" fill="#0D0D0D"/>
<circle cx="1.26182" cy="1.26182" r="1.26182" transform="matrix(0.866025 -0.5 2.20305e-08 1 64.6293 177.02)" fill="#0D0D0D"/>
<circle cx="1.26182" cy="1.26182" r="1.26182" transform="matrix(0.866025 -0.5 2.20305e-08 1 64.6293 216.136)" fill="#0D0D0D"/>
<circle cx="1.26182" cy="1.26182" r="1.26182" transform="matrix(0.866025 -0.5 2.20305e-08 1 99.0517 157.146)" fill="#0D0D0D"/>
<circle cx="1.26182" cy="1.26182" r="1.26182" transform="matrix(0.866025 -0.5 2.20305e-08 1 98.8331 196.641)" fill="#0D0D0D"/>
<circle cx="1.26182" cy="1.26182" r="1.26182" transform="matrix(0.866025 -0.5 2.20305e-08 1 30.207 201.31)" fill="#0D0D0D"/>
<circle cx="1.26182" cy="1.26182" r="1.26182" transform="matrix(0.866025 -0.5 2.20305e-08 1 30.207 240.427)" fill="#0D0D0D"/>
<circle cx="1.26182" cy="1.26182" r="1.26182" transform="matrix(0.866025 -0.5 2.20305e-08 1 64.6293 181.436)" fill="#0D0D0D"/>
<circle cx="1.26182" cy="1.26182" r="1.26182" transform="matrix(0.866025 -0.5 2.20305e-08 1 64.6293 220.553)" fill="#0D0D0D"/>
<circle cx="1.26182" cy="1.26182" r="1.26182" transform="matrix(0.866025 -0.5 2.20305e-08 1 99.0517 161.562)" fill="#0D0D0D"/>
<circle cx="1.26182" cy="1.26182" r="1.26182" transform="matrix(0.866025 -0.5 2.20305e-08 1 98.8331 201.058)" fill="#0D0D0D"/>
<circle cx="1.26182" cy="1.26182" r="1.26182" transform="matrix(0.866025 -0.5 2.20305e-08 1 34.0317 185.853)" fill="#0D0D0D"/>
<circle cx="1.26182" cy="1.26182" r="1.26182" transform="matrix(0.866025 -0.5 2.20305e-08 1 34.0317 224.969)" fill="#0D0D0D"/>
<circle cx="1.26182" cy="1.26182" r="1.26182" transform="matrix(0.866025 -0.5 2.20305e-08 1 68.454 165.979)" fill="#0D0D0D"/>
<circle cx="1.26182" cy="1.26182" r="1.26182" transform="matrix(0.866025 -0.5 2.20305e-08 1 68.454 205.095)" fill="#0D0D0D"/>
<circle cx="1.26182" cy="1.26182" r="1.26182" transform="matrix(0.866025 -0.5 2.20305e-08 1 102.876 146.105)" fill="#0D0D0D"/>
<circle cx="1.26182" cy="1.26182" r="1.26182" transform="matrix(0.866025 -0.5 2.20305e-08 1 102.658 185.6)" fill="#0D0D0D"/>
<circle cx="1.26182" cy="1.26182" r="1.26182" transform="matrix(0.866025 -0.5 2.20305e-08 1 34.0317 190.269)" fill="#0D0D0D"/>
<circle cx="1.26182" cy="1.26182" r="1.26182" transform="matrix(0.866025 -0.5 2.20305e-08 1 34.0317 229.385)" fill="#0D0D0D"/>
<circle cx="1.26182" cy="1.26182" r="1.26182" transform="matrix(0.866025 -0.5 2.20305e-08 1 68.454 170.395)" fill="#0D0D0D"/>
<circle cx="1.26182" cy="1.26182" r="1.26182" transform="matrix(0.866025 -0.5 2.20305e-08 1 68.454 209.512)" fill="#0D0D0D"/>
<circle cx="1.26182" cy="1.26182" r="1.26182" transform="matrix(0.866025 -0.5 2.20305e-08 1 102.876 150.521)" fill="#0D0D0D"/>
<circle cx="1.26182" cy="1.26182" r="1.26182" transform="matrix(0.866025 -0.5 2.20305e-08 1 102.658 190.017)" fill="#0D0D0D"/>
<circle cx="1.26182" cy="1.26182" r="1.26182" transform="matrix(0.866025 -0.5 2.20305e-08 1 34.0317 194.685)" fill="#0D0D0D"/>
<circle cx="1.26182" cy="1.26182" r="1.26182" transform="matrix(0.866025 -0.5 2.20305e-08 1 34.0317 233.802)" fill="#0D0D0D"/>
<circle cx="1.26182" cy="1.26182" r="1.26182" transform="matrix(0.866025 -0.5 2.20305e-08 1 68.454 174.812)" fill="#0D0D0D"/>
<circle cx="1.26182" cy="1.26182" r="1.26182" transform="matrix(0.866025 -0.5 2.20305e-08 1 68.454 213.928)" fill="#0D0D0D"/>
<circle cx="1.26182" cy="1.26182" r="1.26182" transform="matrix(0.866025 -0.5 2.20305e-08 1 102.876 154.938)" fill="#0D0D0D"/>
<circle cx="1.26182" cy="1.26182" r="1.26182" transform="matrix(0.866025 -0.5 2.20305e-08 1 102.658 194.433)" fill="#0D0D0D"/>
<circle cx="1.26182" cy="1.26182" r="1.26182" transform="matrix(0.866025 -0.5 2.20305e-08 1 37.8564 183.644)" fill="#0D0D0D"/>
<circle cx="1.26182" cy="1.26182" r="1.26182" transform="matrix(0.866025 -0.5 2.20305e-08 1 37.8564 222.761)" fill="#0D0D0D"/>
<circle cx="1.26182" cy="1.26182" r="1.26182" transform="matrix(0.866025 -0.5 2.20305e-08 1 72.2787 163.771)" fill="#0D0D0D"/>
<circle cx="1.26182" cy="1.26182" r="1.26182" transform="matrix(0.866025 -0.5 2.20305e-08 1 72.2787 202.887)" fill="#0D0D0D"/>
<circle cx="1.26182" cy="1.26182" r="1.26182" transform="matrix(0.866025 -0.5 2.20305e-08 1 106.701 143.897)" fill="#0D0D0D"/>
<circle cx="1.26182" cy="1.26182" r="1.26182" transform="matrix(0.866025 -0.5 2.20305e-08 1 106.482 183.392)" fill="#0D0D0D"/>
<circle cx="1.26182" cy="1.26182" r="1.26182" transform="matrix(0.866025 -0.5 2.20305e-08 1 37.8564 188.061)" fill="#0D0D0D"/>
<circle cx="1.26182" cy="1.26182" r="1.26182" transform="matrix(0.866025 -0.5 2.20305e-08 1 37.8564 227.177)" fill="#0D0D0D"/>
<circle cx="1.26182" cy="1.26182" r="1.26182" transform="matrix(0.866025 -0.5 2.20305e-08 1 72.2787 168.187)" fill="#0D0D0D"/>
<circle cx="1.26182" cy="1.26182" r="1.26182" transform="matrix(0.866025 -0.5 2.20305e-08 1 72.2787 207.304)" fill="#0D0D0D"/>
<circle cx="1.26182" cy="1.26182" r="1.26182" transform="matrix(0.866025 -0.5 2.20305e-08 1 106.701 148.313)" fill="#0D0D0D"/>
<circle cx="1.26182" cy="1.26182" r="1.26182" transform="matrix(0.866025 -0.5 2.20305e-08 1 106.482 187.808)" fill="#0D0D0D"/>
<circle cx="1.26182" cy="1.26182" r="1.26182" transform="matrix(0.866025 -0.5 2.20305e-08 1 37.8564 192.477)" fill="#0D0D0D"/>
<circle cx="1.26182" cy="1.26182" r="1.26182" transform="matrix(0.866025 -0.5 2.20305e-08 1 37.8564 231.594)" fill="#0D0D0D"/>
<circle cx="1.26182" cy="1.26182" r="1.26182" transform="matrix(0.866025 -0.5 2.20305e-08 1 72.2787 172.603)" fill="#0D0D0D"/>
<circle cx="1.26182" cy="1.26182" r="1.26182" transform="matrix(0.866025 -0.5 2.20305e-08 1 72.2787 211.72)" fill="#0D0D0D"/>
<circle cx="1.26182" cy="1.26182" r="1.26182" transform="matrix(0.866025 -0.5 2.20305e-08 1 106.701 152.73)" fill="#0D0D0D"/>
<circle cx="1.26182" cy="1.26182" r="1.26182" transform="matrix(0.866025 -0.5 2.20305e-08 1 106.482 192.225)" fill="#0D0D0D"/>
<circle cx="1.26182" cy="1.26182" r="1.26182" transform="matrix(0.866025 -0.5 2.20305e-08 1 41.6811 181.436)" fill="#0D0D0D"/>
<circle cx="1.26182" cy="1.26182" r="1.26182" transform="matrix(0.866025 -0.5 2.20305e-08 1 41.6811 220.553)" fill="#0D0D0D"/>
<circle cx="1.26182" cy="1.26182" r="1.26182" transform="matrix(0.866025 -0.5 2.20305e-08 1 76.1034 161.562)" fill="#0D0D0D"/>
<circle cx="1.26182" cy="1.26182" r="1.26182" transform="matrix(0.866025 -0.5 2.20305e-08 1 76.1034 200.679)" fill="#0D0D0D"/>
<circle cx="1.26182" cy="1.26182" r="1.26182" transform="matrix(0.866025 -0.5 2.20305e-08 1 110.526 141.689)" fill="#0D0D0D"/>
<circle cx="1.26182" cy="1.26182" r="1.26182" transform="matrix(0.866025 -0.5 2.20305e-08 1 110.307 181.184)" fill="#0D0D0D"/>
<circle cx="1.26182" cy="1.26182" r="1.26182" transform="matrix(0.866025 -0.5 2.20305e-08 1 41.6811 185.853)" fill="#0D0D0D"/>
<circle cx="1.26182" cy="1.26182" r="1.26182" transform="matrix(0.866025 -0.5 2.20305e-08 1 41.6811 224.969)" fill="#0D0D0D"/>
<circle cx="1.26182" cy="1.26182" r="1.26182" transform="matrix(0.866025 -0.5 2.20305e-08 1 76.1034 165.979)" fill="#0D0D0D"/>
<circle cx="1.26182" cy="1.26182" r="1.26182" transform="matrix(0.866025 -0.5 2.20305e-08 1 76.1034 205.095)" fill="#0D0D0D"/>
<circle cx="1.26182" cy="1.26182" r="1.26182" transform="matrix(0.866025 -0.5 2.20305e-08 1 110.526 146.105)" fill="#0D0D0D"/>
<circle cx="1.26182" cy="1.26182" r="1.26182" transform="matrix(0.866025 -0.5 2.20305e-08 1 110.307 185.6)" fill="#0D0D0D"/>
<circle cx="1.26182" cy="1.26182" r="1.26182" transform="matrix(0.866025 -0.5 2.20305e-08 1 41.6811 190.269)" fill="#0D0D0D"/>
<circle cx="1.26182" cy="1.26182" r="1.26182" transform="matrix(0.866025 -0.5 2.20305e-08 1 41.6811 229.385)" fill="#0D0D0D"/>
<circle cx="1.26182" cy="1.26182" r="1.26182" transform="matrix(0.866025 -0.5 2.20305e-08 1 76.1034 170.395)" fill="#0D0D0D"/>
<circle cx="1.26182" cy="1.26182" r="1.26182" transform="matrix(0.866025 -0.5 2.20305e-08 1 76.1034 209.512)" fill="#0D0D0D"/>
<circle cx="1.26182" cy="1.26182" r="1.26182" transform="matrix(0.866025 -0.5 2.20305e-08 1 110.526 150.521)" fill="#0D0D0D"/>
<circle cx="1.26182" cy="1.26182" r="1.26182" transform="matrix(0.866025 -0.5 2.20305e-08 1 110.307 190.017)" fill="#0D0D0D"/>
<circle cx="1.26182" cy="1.26182" r="1.26182" transform="matrix(0.866025 -0.5 2.20305e-08 1 45.5058 179.228)" fill="#0D0D0D"/>
<circle cx="1.26182" cy="1.26182" r="1.26182" transform="matrix(0.866025 -0.5 2.20305e-08 1 45.5058 218.345)" fill="#0D0D0D"/>
<circle cx="1.26182" cy="1.26182" r="1.26182" transform="matrix(0.866025 -0.5 2.20305e-08 1 79.9281 159.354)" fill="#0D0D0D"/>
<circle cx="1.26182" cy="1.26182" r="1.26182" transform="matrix(0.866025 -0.5 2.20305e-08 1 79.9281 198.471)" fill="#0D0D0D"/>
<circle cx="1.26182" cy="1.26182" r="1.26182" transform="matrix(0.866025 -0.5 2.20305e-08 1 114.35 139.48)" fill="#0D0D0D"/>
<circle cx="1.26182" cy="1.26182" r="1.26182" transform="matrix(0.866025 -0.5 2.20305e-08 1 114.132 178.976)" fill="#0D0D0D"/>
<circle cx="1.26182" cy="1.26182" r="1.26182" transform="matrix(0.866025 -0.5 2.20305e-08 1 45.5058 183.644)" fill="#0D0D0D"/>
<circle cx="1.26182" cy="1.26182" r="1.26182" transform="matrix(0.866025 -0.5 2.20305e-08 1 45.5058 222.761)" fill="#0D0D0D"/>
<circle cx="1.26182" cy="1.26182" r="1.26182" transform="matrix(0.866025 -0.5 2.20305e-08 1 79.9281 163.771)" fill="#0D0D0D"/>
<circle cx="1.26182" cy="1.26182" r="1.26182" transform="matrix(0.866025 -0.5 2.20305e-08 1 79.9281 202.887)" fill="#0D0D0D"/>
<circle cx="1.26182" cy="1.26182" r="1.26182" transform="matrix(0.866025 -0.5 2.20305e-08 1 114.35 143.897)" fill="#0D0D0D"/>
<circle cx="1.26182" cy="1.26182" r="1.26182" transform="matrix(0.866025 -0.5 2.20305e-08 1 114.132 183.392)" fill="#0D0D0D"/>
<circle cx="1.26182" cy="1.26182" r="1.26182" transform="matrix(0.866025 -0.5 2.20305e-08 1 45.5058 188.061)" fill="#0D0D0D"/>
<circle cx="1.26182" cy="1.26182" r="1.26182" transform="matrix(0.866025 -0.5 2.20305e-08 1 45.5058 227.177)" fill="#0D0D0D"/>
<circle cx="1.26182" cy="1.26182" r="1.26182" transform="matrix(0.866025 -0.5 2.20305e-08 1 79.9281 168.187)" fill="#0D0D0D"/>
<circle cx="1.26182" cy="1.26182" r="1.26182" transform="matrix(0.866025 -0.5 2.20305e-08 1 79.9281 207.304)" fill="#0D0D0D"/>
<circle cx="1.26182" cy="1.26182" r="1.26182" transform="matrix(0.866025 -0.5 2.20305e-08 1 114.35 148.313)" fill="#0D0D0D"/>
<circle cx="1.26182" cy="1.26182" r="1.26182" transform="matrix(0.866025 -0.5 2.20305e-08 1 114.132 187.808)" fill="#0D0D0D"/>
<path d="M6.05676 84.2757L39.277 65.096C39.277 86.2813 24.4038 112.043 6.05676 122.635L6.05676 84.2757Z" fill="#1585CB"/>
<path d="M8.24874 123.901L37.085 107.252L37.085 140.549L8.24874 157.198L8.24874 123.901Z" stroke="#0D0D0D" stroke-width="5.06219"/>
<path d="M55.8871 93.8656C65.0607 88.5693 72.4973 92.8628 72.4973 103.455C72.4973 114.048 65.0607 126.929 55.8871 132.225L39.277 141.815L39.277 103.455L55.8871 93.8656Z" fill="#0D0D0D"/>
<path d="M105.718 65.096L105.718 103.455L72.4973 122.635L72.4973 84.2757L105.718 65.096Z" fill="#0D0D0D"/>
<path d="M105.718 65.096L105.718 103.455L72.4973 122.635L72.4973 84.2757L105.718 65.096Z" fill="#1585CB"/>
<path d="M137.626 46.6733L137.626 85.0328L104.406 104.212L122.983 74.3073L104.406 65.853L137.626 46.6733Z" fill="#0D0D0D"/>
<rect width="23.2176" height="23.2176" rx="11.6088" transform="matrix(-1.58247e-08 1 -0.866025 0.5 99.1609 76.4524)" fill="#FCFCFC"/>
<path d="M41.469 99.6588L41.469 69.941L54.3372 77.3705L67.2053 84.7999L41.469 99.6588Z" stroke="#0D0D0D" stroke-width="5.06219"/>
<path d="M119.764 20.0732L119.764 34.3149L113.597 30.7545L107.43 27.1941L119.764 20.0732Z" stroke="#0D0D0D" stroke-width="2.89268"/>
<path d="M121.016 37.0835L129.321 22.6987L137.626 8.31387L137.626 27.4936L121.016 37.0835Z" fill="#1585CB"/>
<path d="M122.269 54.0937L122.269 39.8521L128.436 43.4125L134.602 46.9729L122.269 54.0937Z" stroke="#0D0D0D" stroke-width="2.89268"/>
<path d="M121.016 37.0835L112.711 51.4683L104.406 65.8531L104.406 46.6733L121.016 37.0835Z" fill="#0D0D0D"/>
<circle cx="18.4226" cy="18.4226" r="18.4226" transform="matrix(0.866025 -0.5 2.20305e-08 1 72.4973 47.4304)" fill="#0D0D0D"/>
<path d="M6.05675 160.995L39.277 103.455L39.277 141.815L6.05675 160.995Z" fill="#0D0D0D"/>
<ellipse cx="18.8936" cy="82.0363" rx="1.76655" ry="2.52365" transform="rotate(38.5924 18.8936 82.0363)" fill="#151515"/>
<mask id="path-195-inside-1_0_1" fill="white">
<path fill-rule="evenodd" clip-rule="evenodd" d="M26.4348 85.3596C31.5821 83.8868 34.0701 76.8049 31.9919 69.5416C29.9137 62.2784 24.0563 57.5843 18.909 59.0571C14.2449 60.3916 11.7643 66.3314 12.8857 72.8385L14.8431 71.72C14.3559 67.0008 16.2837 62.8512 19.7137 61.8698C23.7601 60.712 28.3648 64.4021 29.9985 70.112C31.6322 75.8218 29.6764 81.3891 25.63 82.5469C23.3867 83.1887 20.9718 82.3406 18.9867 80.4843L17.8216 82.5815C20.3768 85.0498 23.5197 86.1937 26.4348 85.3596Z"/>
</mask>
<path fill-rule="evenodd" clip-rule="evenodd" d="M26.4348 85.3596C31.5821 83.8868 34.0701 76.8049 31.9919 69.5416C29.9137 62.2784 24.0563 57.5843 18.909 59.0571C14.2449 60.3916 11.7643 66.3314 12.8857 72.8385L14.8431 71.72C14.3559 67.0008 16.2837 62.8512 19.7137 61.8698C23.7601 60.712 28.3648 64.4021 29.9985 70.112C31.6322 75.8218 29.6764 81.3891 25.63 82.5469C23.3867 83.1887 20.9718 82.3406 18.9867 80.4843L17.8216 82.5815C20.3768 85.0498 23.5197 86.1937 26.4348 85.3596Z" fill="#FCFCFC"/>
<path d="M31.9919 69.5416L31.6443 69.6411L31.9919 69.5416ZM26.4348 85.3596L26.3354 85.012L26.4348 85.3596ZM18.909 59.0571L18.8095 58.7094V58.7094L18.909 59.0571ZM12.8857 72.8385L12.5294 72.8999L12.617 73.4085L13.0651 73.1525L12.8857 72.8385ZM14.8431 71.72L15.0225 72.034L15.2269 71.9171L15.2028 71.6829L14.8431 71.72ZM19.7137 61.8698L19.8132 62.2174L19.7137 61.8698ZM29.9985 70.112L30.3461 70.0125L29.9985 70.112ZM25.63 82.5469L25.5305 82.1992L25.63 82.5469ZM18.9867 80.4843L19.2336 80.2202L18.8954 79.904L18.6706 80.3087L18.9867 80.4843ZM17.8216 82.5815L17.5055 82.4059L17.3707 82.6486L17.5704 82.8415L17.8216 82.5815ZM31.6443 69.6411C32.6652 73.2092 32.5598 76.7183 31.5818 79.5022C30.6034 82.2871 28.7664 84.3164 26.3354 85.012L26.5343 85.7073C29.2506 84.93 31.2312 82.682 32.2641 79.7419C33.2973 76.8008 33.3968 73.1373 32.3395 69.4422L31.6443 69.6411ZM19.0084 59.4047C21.4394 58.7091 24.0718 59.4596 26.3752 61.3055C28.6778 63.1507 30.6233 66.073 31.6443 69.6411L32.3395 69.4422C31.2823 65.747 29.26 62.6906 26.8275 60.7412C24.3957 58.7924 21.5258 57.9322 18.8095 58.7094L19.0084 59.4047ZM13.242 72.7771C12.6915 69.5826 13.0284 66.5433 14.0598 64.1512C15.0909 61.76 16.8049 60.0352 19.0084 59.4047L18.8095 58.7094C16.349 59.4134 14.4906 61.3258 13.3958 63.8649C12.3012 66.4032 11.9585 69.5873 12.5294 72.8999L13.242 72.7771ZM14.6637 71.4061L12.7063 72.5246L13.0651 73.1525L15.0225 72.034L14.6637 71.4061ZM19.6142 61.5221C15.9371 62.5743 13.9882 66.9601 14.4834 71.7571L15.2028 71.6829C14.7236 67.0416 16.6303 63.1281 19.8132 62.2174L19.6142 61.5221ZM30.3461 70.0125C29.5111 67.0941 27.9132 64.677 25.987 63.1334C24.0616 61.5904 21.7801 60.9024 19.6142 61.5221L19.8132 62.2174C21.6937 61.6793 23.7377 62.2576 25.5347 63.6977C27.3309 65.1371 28.8522 67.42 29.6509 70.2114L30.3461 70.0125ZM25.7294 82.8945C27.8953 82.2748 29.4676 80.4841 30.2854 78.1563C31.1036 75.8274 31.1812 72.9309 30.3461 70.0125L29.6509 70.2114C30.4496 73.0028 30.3661 75.7449 29.6031 77.9166C28.8398 80.0892 27.4111 81.6611 25.5305 82.1992L25.7294 82.8945ZM18.7397 80.7484C20.7856 82.6615 23.327 83.5819 25.7294 82.8945L25.5305 82.1992C23.4463 82.7956 21.158 82.0196 19.2336 80.2202L18.7397 80.7484ZM18.1377 82.7571L19.3027 80.6599L18.6706 80.3087L17.5055 82.4059L18.1377 82.7571ZM26.3354 85.012C23.5829 85.7995 20.5681 84.7319 18.0728 82.3214L17.5704 82.8415C20.1854 85.3677 23.4565 86.5879 26.5343 85.7073L26.3354 85.012Z" fill="#0D0D0D" mask="url(#path-195-inside-1_0_1)"/>
<ellipse cx="18.8936" cy="82.0363" rx="1.76655" ry="2.52365" transform="rotate(38.5924 18.8936 82.0363)" fill="#151515"/>
<path fill-rule="evenodd" clip-rule="evenodd" d="M18.5548 80.0574C19.2821 80.8166 20.0776 81.4359 20.9085 81.8892C20.8024 82.3098 20.5899 82.7429 20.2744 83.1383C20.0217 83.4549 19.7307 83.7125 19.4262 83.9035C18.5781 83.3163 17.7699 82.5914 17.0256 81.7479C17.143 81.4699 17.3057 81.194 17.5129 80.9344C17.8188 80.5512 18.1808 80.2545 18.5548 80.0574Z" fill="#FCFCFC"/>
<path fill-rule="evenodd" clip-rule="evenodd" d="M26.4348 85.3596C31.5821 83.8868 34.0701 76.8049 31.9919 69.5416C29.9137 62.2784 24.0563 57.5843 18.909 59.0571C14.2449 60.3916 11.7643 66.3314 12.8857 72.8385L14.8431 71.72C14.3559 67.0008 16.2837 62.8512 19.7137 61.8698C23.7601 60.712 28.3648 64.4021 29.9985 70.112C31.6322 75.8218 29.6764 81.3891 25.63 82.5469C23.3867 83.1887 20.9718 82.3406 18.9867 80.4843L17.8216 82.5815C20.3768 85.0498 23.5197 86.1937 26.4348 85.3596Z" fill="#E7E7E7"/>
<ellipse cx="18.8936" cy="82.0363" rx="1.76655" ry="2.52365" transform="rotate(38.5924 18.8936 82.0363)" fill="#151515"/>
<path fill-rule="evenodd" clip-rule="evenodd" d="M18.5548 80.0574C19.2821 80.8166 20.0776 81.4359 20.9085 81.8892C20.8024 82.3098 20.5899 82.7429 20.2744 83.1383C20.0217 83.4549 19.7307 83.7125 19.4262 83.9035C18.5781 83.3163 17.7699 82.5914 17.0256 81.7479C17.143 81.4699 17.3057 81.194 17.5129 80.9344C17.8188 80.5512 18.1808 80.2545 18.5548 80.0574Z" fill="#E7E7E7"/>
<path fill-rule="evenodd" clip-rule="evenodd" d="M54.6997 69.2083C59.847 67.7355 62.335 60.6535 60.2568 53.3903C58.1786 46.127 52.3211 41.4329 47.1738 42.9057C42.5098 44.2402 40.0292 50.18 41.1505 56.6871L43.108 55.5685C42.6208 50.8494 44.5487 46.6998 47.9786 45.7184C52.025 44.5606 56.6297 48.2508 58.2634 53.9606C59.8971 59.6704 57.9413 65.2377 53.8948 66.3955C51.6515 67.0374 49.2366 66.1892 47.2515 64.3329L46.0864 66.4301C48.6416 68.8985 51.7845 70.0424 54.6997 69.2083Z" fill="#E7E7E7"/>
<ellipse cx="47.1585" cy="65.8849" rx="1.76655" ry="2.52365" transform="rotate(38.5924 47.1585 65.8849)" fill="#151515"/>
<path fill-rule="evenodd" clip-rule="evenodd" d="M46.8196 63.906C47.547 64.6651 48.3425 65.2845 49.1734 65.7378C49.0672 66.1583 48.8548 66.5915 48.5393 66.9868C48.2866 67.3035 47.9956 67.561 47.6911 67.7521C46.8429 67.1648 46.0348 66.44 45.2905 65.5964C45.4079 65.3185 45.5706 65.0426 45.7778 64.783C46.0837 64.3997 46.4457 64.103 46.8196 63.906Z" fill="#E7E7E7"/>
<path fill-rule="evenodd" clip-rule="evenodd" d="M81.9551 53.5616C87.1024 52.0889 89.5904 45.0069 87.5122 37.7437C85.4339 30.4804 79.5765 25.7863 74.4292 27.2591C69.7652 28.5936 67.2846 34.5334 68.4059 41.0405L70.3633 39.922C69.8762 35.2029 71.804 31.0532 75.234 30.0718C79.2804 28.9141 83.885 32.6042 85.5188 38.314C87.1525 44.0238 85.1966 49.5911 81.1502 50.7489C78.9069 51.3908 76.492 50.5426 74.5069 48.6864L73.3419 50.7835C75.897 53.2518 79.0399 54.3957 81.9551 53.5616Z" fill="#E7E7E7"/>
<ellipse cx="74.4139" cy="50.2383" rx="1.76655" ry="2.52365" transform="rotate(38.5924 74.4139 50.2383)" fill="#151515"/>
<path fill-rule="evenodd" clip-rule="evenodd" d="M74.075 48.2594C74.8024 49.0186 75.5979 49.6379 76.4288 50.0912C76.3226 50.5118 76.1102 50.9449 75.7947 51.3403C75.542 51.6569 75.251 51.9144 74.9465 52.1055C74.0983 51.5183 73.2902 50.7934 72.5459 49.9499C72.6633 49.6719 72.826 49.396 73.0332 49.1364C73.3391 48.7532 73.7011 48.4565 74.075 48.2594Z" fill="#E7E7E7"/>
<path fill-rule="evenodd" clip-rule="evenodd" d="M108.201 38.4197C113.348 36.947 115.836 29.865 113.758 22.6018C111.68 15.3385 105.822 10.6444 100.675 12.1172C96.0112 13.4517 93.5305 19.3915 94.6519 25.8986L96.6093 24.7801C96.1221 20.0609 98.05 15.9113 101.48 14.9299C105.526 13.7721 110.131 17.4623 111.765 23.1721C113.398 28.8819 111.443 34.4492 107.396 35.607C105.153 36.2489 102.738 35.4007 100.753 33.5445L99.5878 35.6416C102.143 38.1099 105.286 39.2538 108.201 38.4197Z" fill="#E7E7E7"/>
<ellipse cx="100.66" cy="35.0964" rx="1.76655" ry="2.52365" transform="rotate(38.5924 100.66 35.0964)" fill="#151515"/>
<path fill-rule="evenodd" clip-rule="evenodd" d="M100.321 33.1175C101.048 33.8766 101.844 34.496 102.675 34.9493C102.569 35.3698 102.356 35.803 102.041 36.1983C101.788 36.515 101.497 36.7725 101.192 36.9636C100.344 36.3764 99.5362 35.6515 98.7919 34.8079C98.9092 34.53 99.072 34.2541 99.2792 33.9945C99.585 33.6112 99.947 33.3146 100.321 33.1175Z" fill="#E7E7E7"/>
<path d="M152.933 87.6625L181.567 68.0183V82.3353V94.6545L160.924 98.317L152.933 87.6625Z" fill="#0D0D0D"/>
<path d="M181.567 68.0184L256.148 117.295L255.482 238.823L180.901 178.892L181.567 68.0184Z" fill="#050505"/>
<rect x="0.413137" y="0.715575" width="97.5998" height="119.575" transform="matrix(0.866025 0.5 -2.20305e-08 1 173.631 73.472)" fill="#FCFCFC" stroke="#0D0D0D" stroke-width="0.9541"/>
<rect x="0.413137" y="0.715575" width="97.5998" height="119.575" transform="matrix(0.866025 0.5 -2.20305e-08 1 168.97 76.1356)" fill="#FCFCFC" stroke="#0D0D0D" stroke-width="0.9541"/>
<rect x="0.413137" y="0.715575" width="97.5998" height="119.575" transform="matrix(0.866025 0.5 -2.20305e-08 1 165.641 78.7992)" fill="#FCFCFC" stroke="#0D0D0D" stroke-width="0.9541"/>
<rect x="0.413137" y="0.715575" width="97.5998" height="119.575" transform="matrix(0.866025 0.5 -2.20305e-08 1 162.977 82.1288)" fill="#FCFCFC" stroke="#0D0D0D" stroke-width="0.9541"/>
<rect x="0.413137" y="0.715575" width="97.5998" height="119.575" transform="matrix(0.866025 0.5 -2.20305e-08 1 157.65 84.7924)" fill="#FCFCFC" stroke="#0D0D0D" stroke-width="0.9541"/>
<mask id="path-218-inside-2_0_1" fill="white">
<path d="M152.933 87.3296L238.283 136.607L238.283 259.466L152.933 210.189L152.933 87.3296Z"/>
</mask>
<path d="M152.933 87.3296L238.283 136.607L238.283 259.466L152.933 210.189L152.933 87.3296Z" fill="#FCFCFC"/>
<path d="M152.933 87.3296L152.933 85.1601L151.054 84.0753L151.054 86.2448L152.933 87.3296ZM238.283 136.607L240.162 137.691L240.162 135.522L238.283 134.437L238.283 136.607ZM238.283 259.466L238.283 261.636L240.162 262.72L240.162 260.551L238.283 259.466ZM152.933 210.189L151.054 209.104L151.054 211.274L152.933 212.359L152.933 210.189ZM152.933 89.4991L238.283 138.776L238.283 134.437L152.933 85.1601L152.933 89.4991ZM236.404 135.522L236.404 258.381L240.162 260.551L240.162 137.691L236.404 135.522ZM238.283 257.296L152.933 208.02L152.933 212.359L238.283 261.636L238.283 257.296ZM154.812 211.274L154.812 88.4143L151.054 86.2448L151.054 209.104L154.812 211.274Z" fill="#0D0D0D" mask="url(#path-218-inside-2_0_1)"/>
<rect width="48.6111" height="27.3021" rx="2.8623" transform="matrix(0.866025 0.5 -2.20305e-08 1 173.576 116.962)" fill="#D9D9D9"/>
<path d="M177.036 124.287L211.349 144.098" stroke="#0D0D0D" stroke-width="0.9541"/>
<path d="M177.036 129.948L211.349 149.758" stroke="#0D0D0D" stroke-width="0.9541"/>
<path d="M177.036 135.941L211.349 155.751" stroke="#0D0D0D" stroke-width="0.9541"/>
<path d="M177.036 141.934L211.349 161.744" stroke="#0D0D0D" stroke-width="0.9541"/>
<rect width="90.1415" height="119.981" transform="matrix(0.866025 0.5 -0.866025 0.5 183.015 239.519)" fill="#0D0D0D"/>
<path d="M79.108 292.671L79.108 299.51L80.3513 299.199L84.703 298.577L86.2572 296.401L82.5272 293.604L79.108 292.671Z" fill="#0D0D0D"/>
<path d="M260.945 284.59L260.945 277.751L255.661 280.238L254.418 281.171L254.729 283.036L260.945 284.59Z" fill="#0D0D0D"/>
<rect x="-6.46565e-08" y="1.08476" width="87.972" height="117.812" transform="matrix(0.866025 0.5 -0.866025 0.5 183.954 233.223)" fill="#FCFCFC" stroke="#0D0D0D" stroke-width="2.16951"/>
<line y1="-0.361585" x2="65.8966" y2="-0.361585" transform="matrix(0.866025 0.5 -0.866025 0.5 165.248 254.75)" stroke="#0D0D0D" stroke-width="0.72317"/>
<line y1="-0.361585" x2="65.8966" y2="-0.361585" transform="matrix(0.866025 0.5 -0.866025 0.5 157.173 259.412)" stroke="#0D0D0D" stroke-width="0.72317"/>
<line y1="-0.361585" x2="65.8966" y2="-0.361585" transform="matrix(0.866025 0.5 -0.866025 0.5 149.097 264.075)" stroke="#1585CB" stroke-width="0.72317"/>
<line y1="-0.361585" x2="65.8966" y2="-0.361585" transform="matrix(0.866025 0.5 -0.866025 0.5 141.021 268.737)" stroke="#0D0D0D" stroke-width="0.72317"/>
<line y1="-0.361585" x2="65.8966" y2="-0.361585" transform="matrix(0.866025 0.5 -0.866025 0.5 132.946 273.4)" stroke="#0D0D0D" stroke-width="0.72317"/>
<line y1="-0.361585" x2="65.8966" y2="-0.361585" transform="matrix(0.866025 0.5 -0.866025 0.5 124.87 278.062)" stroke="#1585CB" stroke-width="0.72317"/>
<line y1="-0.361585" x2="65.8966" y2="-0.361585" transform="matrix(0.866025 0.5 -0.866025 0.5 116.794 282.725)" stroke="#0D0D0D" stroke-width="0.72317"/>
<line y1="-0.361585" x2="65.8966" y2="-0.361585" transform="matrix(0.866025 0.5 -0.866025 0.5 108.719 287.387)" stroke="#0D0D0D" stroke-width="0.72317"/>
<line y1="-0.361585" x2="65.8966" y2="-0.361585" transform="matrix(0.866025 0.5 -0.866025 0.5 100.643 292.05)" stroke="#0D0D0D" stroke-width="0.72317"/>
<ellipse cx="194.877" cy="245.57" rx="2.84979" ry="2.17583" transform="rotate(-35.8674 194.877 245.57)" fill="#0D0D0D"/>
<path fill-rule="evenodd" clip-rule="evenodd" d="M196.987 246.493C196.77 246.802 196.489 247.089 196.152 247.333C195.498 247.806 194.757 248.025 194.096 247.996C193.278 247.202 192.797 246.068 192.674 244.785C192.902 244.424 193.214 244.087 193.602 243.807C193.965 243.544 194.356 243.359 194.744 243.252C194.742 244.509 195.267 245.629 196.259 246.201C196.49 246.335 196.735 246.431 196.987 246.493Z" fill="#D9D9D9"/>
<path fill-rule="evenodd" clip-rule="evenodd" d="M196.752 246.424L193.779 247.11L193.597 247.413C192.269 245.545 192.299 242.491 193.865 239.779C195.832 236.372 199.475 234.794 202.003 236.253C204.374 237.622 204.92 241.178 203.355 244.426L201.744 243.5C202.546 241.572 202.106 239.496 200.624 238.64C198.976 237.689 196.663 238.61 195.457 240.698C194.252 242.785 194.611 245.249 196.259 246.201C196.418 246.293 196.582 246.367 196.752 246.424Z" fill="#D9D9D9"/>
<ellipse cx="207.932" cy="253.03" rx="2.84979" ry="2.17583" transform="rotate(-35.8674 207.932 253.03)" fill="#0D0D0D"/>
<path fill-rule="evenodd" clip-rule="evenodd" d="M210.042 253.953C209.825 254.262 209.544 254.549 209.207 254.793C208.553 255.266 207.812 255.485 207.151 255.456C206.333 254.662 205.852 253.528 205.729 252.245C205.957 251.884 206.269 251.547 206.657 251.267C207.02 251.004 207.411 250.819 207.799 250.712C207.797 251.969 208.322 253.089 209.314 253.661C209.545 253.795 209.79 253.891 210.042 253.953Z" fill="#D9D9D9"/>
<path fill-rule="evenodd" clip-rule="evenodd" d="M209.807 253.884L206.834 254.57L206.652 254.873C205.324 253.005 205.354 249.951 206.92 247.239C208.887 243.832 212.53 242.254 215.058 243.713C217.429 245.082 217.976 248.638 216.41 251.886L214.8 250.96C215.601 249.032 215.161 246.956 213.679 246.1C212.031 245.149 209.718 246.07 208.512 248.158C207.307 250.245 207.666 252.709 209.314 253.661C209.473 253.753 209.637 253.827 209.807 253.884Z" fill="#D9D9D9"/>
<ellipse cx="221.608" cy="261.111" rx="2.84979" ry="2.17583" transform="rotate(-35.8674 221.608 261.111)" fill="#0D0D0D"/>
<path fill-rule="evenodd" clip-rule="evenodd" d="M223.719 262.035C223.502 262.343 223.221 262.631 222.883 262.875C222.229 263.348 221.489 263.567 220.828 263.537C220.01 262.744 219.528 261.609 219.406 260.326C219.633 259.966 219.946 259.629 220.334 259.348C220.697 259.086 221.087 258.901 221.476 258.794C221.474 260.05 221.999 261.17 222.991 261.743C223.222 261.876 223.466 261.973 223.719 262.035Z" fill="#D9D9D9"/>
<path fill-rule="evenodd" clip-rule="evenodd" d="M223.483 261.966L220.511 262.652L220.329 262.955C219 261.087 219.031 258.033 220.597 255.32C222.564 251.914 226.207 250.335 228.734 251.794C231.106 253.163 231.652 256.72 230.086 259.967L228.476 259.042C229.277 257.114 228.837 255.037 227.356 254.182C225.708 253.23 223.394 254.152 222.189 256.239C220.983 258.327 221.342 260.791 222.991 261.743C223.149 261.834 223.314 261.908 223.483 261.966Z" fill="#D9D9D9"/>
<ellipse cx="234.663" cy="268.572" rx="2.84979" ry="2.17583" transform="rotate(-35.8674 234.663 268.572)" fill="#0D0D0D"/>
<path fill-rule="evenodd" clip-rule="evenodd" d="M236.774 269.495C236.557 269.803 236.276 270.091 235.938 270.335C235.284 270.808 234.544 271.027 233.883 270.997C233.065 270.204 232.583 269.069 232.461 267.786C232.688 267.426 233.001 267.089 233.389 266.808C233.752 266.546 234.142 266.361 234.531 266.254C234.529 267.51 235.054 268.63 236.046 269.203C236.277 269.336 236.522 269.433 236.774 269.495Z" fill="#D9D9D9"/>
<path fill-rule="evenodd" clip-rule="evenodd" d="M236.538 269.426L233.566 270.112L233.384 270.415C232.055 268.547 232.086 265.493 233.652 262.78C235.619 259.374 239.262 257.795 241.789 259.254C244.161 260.623 244.707 264.18 243.142 267.427L241.531 266.502C242.332 264.574 241.892 262.497 240.411 261.642C238.763 260.69 236.449 261.611 235.244 263.699C234.038 265.787 234.397 268.251 236.046 269.203C236.204 269.294 236.369 269.368 236.538 269.426Z" fill="#D9D9D9"/>
<path fill-rule="evenodd" clip-rule="evenodd" d="M450.484 396.887C444.381 393.363 434.485 393.363 428.382 396.887L218.418 518.11C212.315 521.634 212.315 527.347 218.418 530.87L324.505 592.12C330.608 595.644 340.504 595.644 346.607 592.12L556.571 470.897C562.674 467.373 562.674 461.66 556.571 458.137L450.484 396.887Z" fill="#0D0D0D"/>
<rect x="-7.60574e-08" y="1.27603" width="145.468" height="265.415" rx="11.4843" transform="matrix(0.866025 0.5 -0.866025 0.5 440.538 382.638)" fill="#FCFCFC" stroke="#0D0D0D" stroke-width="2.55206"/>
<rect width="137.811" height="213.523" transform="matrix(0.866025 0.5 -0.866025 0.5 424.699 395.611)" fill="#0D0D0D"/>
<circle cx="2.15174" cy="2.15174" r="2.15174" transform="matrix(0.866025 0.5 -0.866025 0.5 476.269 413.475)" fill="#0D0D0D"/>
<rect width="29.4071" height="4.30348" rx="2.15174" transform="matrix(0.866025 0.5 -0.866025 0.5 487.363 419.881)" fill="#0D0D0D"/>
<circle cx="10.2083" cy="10.2083" r="9.35756" transform="matrix(0.866025 0.5 -0.866025 0.5 286.933 533.848)" stroke="#0D0D0D" stroke-width="1.70138"/>
<path d="M213.747 524.915V515.983L217.15 519.811V525.766L213.747 524.915Z" fill="#0D0D0D"/>
<path d="M561.253 464.517V456.01H560.828L558.276 458.987L557.425 464.091L561.253 464.517Z" fill="#0D0D0D"/>
<path d="M433.335 345.872L419.46 334.445L416.604 325.876L421.093 325.059L433.335 345.872Z" fill="#15425F"/>
<path d="M327.234 130.404L362.329 110L437.416 167.539L402.321 187.944L327.234 130.404Z" fill="#1585CB"/>
<path d="M402.321 187.944L437.416 167.54L437.457 266.296L402.116 286.7L402.321 187.944Z" fill="#15425F"/>
<path d="M419.461 334.445L382.325 281.803L456.596 238.954L419.461 334.445Z" fill="#15425F"/>
<path d="M470.471 250.38L456.596 238.954L451.291 246.708L447.21 254.053L450.067 264.255L463.941 255.685L470.471 250.38Z" fill="#15425F"/>
<path d="M451.291 178.966L437.416 167.54L435.376 177.334L435.784 186.719L437.416 189.168L450.067 180.598L451.291 178.966Z" fill="#717171"/>
<rect width="40.8082" height="98.7559" transform="matrix(0.866025 -0.5 2.20305e-08 1 415.991 199.37)" fill="#1585CB"/>
<path d="M433.308 346.076L396.2 293.229L470.416 250.38L433.308 346.076Z" fill="#1585CB"/>
<path d="M327.234 130.404L402.325 187.945L402.325 207.532L327.234 149.992L327.234 130.404Z" fill="#15425F"/>
<path d="M416.196 199.37L402.321 187.944L437.416 167.54L451.291 178.966L416.196 199.37Z" fill="#1585CB"/>
<path fill-rule="evenodd" clip-rule="evenodd" d="M406.345 447.691L417.891 454.357L417.085 459.473L403.66 451.722L411.044 462.961L420.978 462.961L426.886 459.55L434.941 464.201L431.584 473.89L447.963 471.72L455.884 476.293L434.941 488.385L425.812 488.385L406.748 477.378L402.183 480.013L421.247 491.02L418.428 497.918L406.882 499.314L360.43 472.495L386.073 457.69L385.938 452.652L397.35 452.264L394.531 447.691L406.345 447.691ZM394.262 456.527L399.901 456.527L403.391 463.658L393.725 458.078L394.262 456.527ZM407.016 468.232L403.66 468.309L407.687 470.634L407.016 468.232ZM412.252 474.2L427.423 465.441L424.066 475.905L427.691 477.998L445.547 475.905L430.376 484.664L412.252 474.2ZM400.706 473.89L385.938 465.364L381.374 467.999L396.142 476.525L400.706 473.89ZM376.943 470.557L391.711 479.083L387.147 481.719L372.379 473.192L376.943 470.557ZM412.655 491.175L397.887 482.649L393.322 485.284L408.09 493.81L412.521 493.733L412.655 491.175Z" fill="#FCFCFC"/>
<path d="M441.119 453.207L438.892 455.73L442.36 457.732L437.516 457.289L435.289 459.813L434.522 457.016L429.677 456.573L434.047 455.287L433.28 452.49L436.748 454.492L441.119 453.207Z" fill="#FCFCFC"/>
<path d="M451.049 460.262L449.581 461.853L451.662 463.054L448.673 462.835L447.205 464.426L446.826 462.7L443.838 462.482L446.592 461.634L446.213 459.909L448.294 461.11L451.049 460.262Z" fill="#FCFCFC"/>
<path d="M429.089 447.584L427.664 449.199L429.883 450.48L426.783 450.197L425.357 451.812L424.866 450.022L421.766 449.738L424.563 448.915L424.072 447.125L426.292 448.407L429.089 447.584Z" fill="#FCFCFC"/>
<circle cx="2.64597" cy="2.64597" r="2.64597" transform="matrix(0.866025 0.5 -0.866025 0.5 417.631 500.062)" fill="#FCFCFC"/>
</svg>
