<?xml version="1.0" standalone="no"?>
<!DOCTYPE svg PUBLIC "-//W3C//DTD SVG 20010904//EN"
        "http://www.w3.org/TR/2001/REC-SVG-20010904/DTD/svg10.dtd">
<svg version="1.0" xmlns="http://www.w3.org/2000/svg"
     width="256.000000pt" height="256.000000pt" viewBox="0 0 256.000000 256.000000"
     preserveAspectRatio="xMidYMid meet">
    <metadata>
        Created by potrace 1.14, written by Peter Selinger 2001-2017
    </metadata>
    <g transform="translate(0.000000,256.000000) scale(0.100000,-0.100000)"
       fill="#000000" stroke="none">
        <path d="M1259 2123 l-15 -48 -53 -5 -53 -5 40 -33 41 -32 -14 -47 c-8 -26
-13 -48 -11 -50 1 -2 22 10 44 27 l42 30 42 -30 c22 -17 43 -29 45 -27 2 2 -4
24 -12 48 l-16 44 42 37 43 37 -54 3 -54 3 -15 48 c-8 26 -17 47 -21 47 -4 0
-13 -21 -21 -47z"/>
        <path d="M970 2103 c-10 -28 -17 -33 -43 -33 l-32 -1 23 -19 c19 -16 22 -26
17 -50 -7 -34 0 -38 26 -14 16 14 20 14 43 -2 32 -20 42 -14 25 17 -10 20 -8
25 17 46 l29 23 -33 0 c-28 0 -35 5 -47 33 l-14 32 -11 -32z"/>
        <path d="M1576 2118 c-3 -10 -8 -25 -11 -33 -2 -9 -16 -15 -35 -15 -35 0 -40
-15 -9 -25 18 -6 20 -13 16 -41 -6 -38 -2 -41 24 -18 17 15 20 15 43 0 34 -22
37 -20 25 11 -9 25 -7 30 18 50 l28 23 -36 0 c-32 0 -37 4 -46 33 -8 25 -12
28 -17 15z"/>
        <path d="M580 1728 c-36 -44 -66 -85 -68 -89 -2 -4 26 -23 62 -41 l66 -33 -65
-75 c-36 -41 -65 -79 -65 -85 0 -5 25 -38 55 -72 l55 -61 0 -351 0 -351 648 0
648 0 19 32 c10 18 38 63 63 101 24 37 42 74 39 81 -3 8 -32 55 -64 105 l-58
91 -267 0 -268 0 0 60 0 60 270 0 270 0 60 73 60 72 0 283 0 282 -117 0 -118
-1 -30 -47 c-16 -26 -39 -65 -50 -87 -22 -44 -86 -135 -94 -135 -3 0 -30 39
-60 88 -30 48 -67 108 -84 135 l-29 47 -114 0 -114 0 0 -82 -1 -83 -67 -73
-67 -72 -80 34 c-186 79 -279 124 -283 134 -2 8 50 12 181 14 l185 3 -58 63
-58 62 -168 -1 -169 0 -65 -81z m1295 -283 l0 -195 -242 0 -243 0 0 191 c0
145 3 190 12 187 7 -3 48 -64 93 -136 l80 -132 56 0 56 0 87 140 c48 77 90
140 94 140 4 0 7 -88 7 -195z m-875 -57 c0 -5 -57 -8 -126 -8 -95 0 -129 3
-140 14 -21 21 -17 37 17 72 l31 32 109 -52 c60 -28 109 -54 109 -58z m199
-89 c47 -17 37 -29 -24 -29 -54 0 -55 0 -38 20 20 23 20 23 62 9z m11 -249 l0
-60 -205 0 -205 0 0 60 0 60 205 0 205 0 0 -60z m0 -265 l0 -55 -205 0 -205 0
0 55 0 55 205 0 205 0 0 -55z m611 33 c23 -28 23 -42 3 -73 l-16 -25 -214 0
-214 0 0 60 0 60 211 0 c206 0 211 0 230 -22z"/>
        <path d="M2092 690 c-46 -43 -15 -120 48 -120 62 0 92 73 50 118 -26 28 -69
28 -98 2z"/>
    </g>
</svg>
